<?xml version="1.0" encoding="us-ascii" standalone="no"?><svg xmlns="http://www.w3.org/2000/svg" xmlns:xlink="http://www.w3.org/1999/xlink" contentStyleType="text/css" height="563px" preserveAspectRatio="none" style="width:2015px;height:563px;background:#F9F9F9;" version="1.1" viewBox="0 0 2015 563" width="2015px" zoomAndPan="magnify"><defs/><g><rect fill="#F9F9F9" height="563" style="stroke:none;stroke-width:1.0;" width="2015" x="0" y="0"/><rect fill="none" height="63.2031" id="_title" style="stroke:#3A3A3A;stroke-width:1.0;" width="1171" x="415" y="5"/><text fill="#3A3A3A" font-family="sans-serif" font-size="40" font-weight="bold" lengthAdjust="spacing" textLength="1161" x="420" y="53.1641">Diagramme de Contexte pour une Application de E-commerce</text><!--cluster Application de E-commerce--><g id="cluster_Application de E-commerce"><path d="M596.5,108.2324 L989.5,108.2324 A3.75,3.75 0 0 1 992,110.7324 L999,154.1348 L1048.5,154.1348 A2.5,2.5 0 0 1 1051,156.6348 L1051,459.7324 A2.5,2.5 0 0 1 1048.5,462.2324 L596.5,462.2324 A2.5,2.5 0 0 1 594,459.7324 L594,110.7324 A2.5,2.5 0 0 1 596.5,108.2324 " fill="#E0E7FF" style="stroke:#3A3A3A;stroke-width:1.5;"/><line style="stroke:#3A3A3A;stroke-width:1.5;" x1="594" x2="999" y1="154.1348" y2="154.1348"/><text fill="#000000" font-family="sans-serif" font-size="30" font-weight="bold" lengthAdjust="spacing" textLength="392" x="598" y="142.6055">Application de E-commerce</text></g><!--entity Produits--><g id="elem_Produits"><rect fill="#CCE5FF" height="69.9023" rx="2.5" ry="2.5" style="stroke:#3A3A3A;stroke-width:0.5;" width="299" x="673" y="166.2324"/><rect fill="#CCE5FF" height="10" style="stroke:#3A3A3A;stroke-width:0.5;" width="15" x="952" y="171.2324"/><rect fill="#CCE5FF" height="2" style="stroke:#3A3A3A;stroke-width:0.5;" width="4" x="950" y="173.2324"/><rect fill="#CCE5FF" height="2" style="stroke:#3A3A3A;stroke-width:0.5;" width="4" x="950" y="177.2324"/><text fill="#000000" font-family="sans-serif" font-size="30" lengthAdjust="spacing" textLength="259" x="688" y="218.6055">Navigation Produits</text></g><!--entity Commandes--><g id="elem_Commandes"><rect fill="#CCE5FF" height="69.9023" rx="2.5" ry="2.5" style="stroke:#3A3A3A;stroke-width:0.5;" width="319" x="663" y="271.2324"/><rect fill="#CCE5FF" height="10" style="stroke:#3A3A3A;stroke-width:0.5;" width="15" x="962" y="276.2324"/><rect fill="#CCE5FF" height="2" style="stroke:#3A3A3A;stroke-width:0.5;" width="4" x="960" y="278.2324"/><rect fill="#CCE5FF" height="2" style="stroke:#3A3A3A;stroke-width:0.5;" width="4" x="960" y="282.2324"/><text fill="#000000" font-family="sans-serif" font-size="30" lengthAdjust="spacing" textLength="279" x="678" y="323.6055">Gestion Commandes</text></g><!--entity Comptes--><g id="elem_Comptes"><rect fill="#CCE5FF" height="69.9023" rx="2.5" ry="2.5" style="stroke:#3A3A3A;stroke-width:0.5;" width="425" x="610" y="376.2324"/><rect fill="#CCE5FF" height="10" style="stroke:#3A3A3A;stroke-width:0.5;" width="15" x="1015" y="381.2324"/><rect fill="#CCE5FF" height="2" style="stroke:#3A3A3A;stroke-width:0.5;" width="4" x="1013" y="383.2324"/><rect fill="#CCE5FF" height="2" style="stroke:#3A3A3A;stroke-width:0.5;" width="4" x="1013" y="387.2324"/><text fill="#000000" font-family="sans-serif" font-size="30" lengthAdjust="spacing" textLength="385" x="625" y="428.6055">Gestion Comptes Utilisateurs</text></g><!--entity Customer--><g id="elem_Customer"><ellipse cx="102" cy="142.7324" fill="#FF5733" rx="8" ry="8" style="stroke:#3A3A3A;stroke-width:0.5;"/><path d="M102,150.7324 L102,177.7324 M89,158.7324 L115,158.7324 M102,177.7324 L89,192.7324 M102,177.7324 L115,192.7324 " fill="none" style="stroke:#3A3A3A;stroke-width:0.5;"/><text fill="#000000" font-family="sans-serif" font-size="30" lengthAdjust="spacing" textLength="77" x="63.5" y="226.6055">Client</text></g><!--entity Admin--><g id="elem_Admin"><ellipse cx="102" cy="385.7324" fill="#33C1FF" rx="8" ry="8" style="stroke:#3A3A3A;stroke-width:0.5;"/><path d="M102,393.7324 L102,420.7324 M89,401.7324 L115,401.7324 M102,420.7324 L89,435.7324 M102,420.7324 L115,435.7324 " fill="none" style="stroke:#3A3A3A;stroke-width:0.5;"/><text fill="#000000" font-family="sans-serif" font-size="30" lengthAdjust="spacing" textLength="192" x="6" y="469.6055">Administrateur</text></g><!--entity PaymentGateway--><g id="elem_PaymentGateway"><rect fill="#CCE5FF" height="69.9023" rx="2.5" ry="2.5" style="stroke:#3A3A3A;stroke-width:0.5;" width="352" x="1650" y="271.2324"/><rect fill="#CCE5FF" height="10" style="stroke:#3A3A3A;stroke-width:0.5;" width="15" x="1982" y="276.2324"/><rect fill="#CCE5FF" height="2" style="stroke:#3A3A3A;stroke-width:0.5;" width="4" x="1980" y="278.2324"/><rect fill="#CCE5FF" height="2" style="stroke:#3A3A3A;stroke-width:0.5;" width="4" x="1980" y="282.2324"/><text fill="#000000" font-family="sans-serif" font-size="30" lengthAdjust="spacing" textLength="312" x="1665" y="323.6055">Passerelle de Paiement</text></g><!--entity SupplierSystem--><g id="elem_SupplierSystem"><rect fill="#CCE5FF" height="69.9023" rx="2.5" ry="2.5" style="stroke:#3A3A3A;stroke-width:0.5;" width="321" x="1665.5" y="166.2324"/><rect fill="#CCE5FF" height="10" style="stroke:#3A3A3A;stroke-width:0.5;" width="15" x="1966.5" y="171.2324"/><rect fill="#CCE5FF" height="2" style="stroke:#3A3A3A;stroke-width:0.5;" width="4" x="1964.5" y="173.2324"/><rect fill="#CCE5FF" height="2" style="stroke:#3A3A3A;stroke-width:0.5;" width="4" x="1964.5" y="177.2324"/><text fill="#000000" font-family="sans-serif" font-size="30" lengthAdjust="spacing" textLength="281" x="1680.5" y="218.6055">Syst&#232;me Fournisseur</text></g><!--entity EmailService--><g id="elem_EmailService"><rect fill="#CCE5FF" height="69.9023" rx="2.5" ry="2.5" style="stroke:#3A3A3A;stroke-width:0.5;" width="366" x="1643" y="376.2324"/><rect fill="#CCE5FF" height="10" style="stroke:#3A3A3A;stroke-width:0.5;" width="15" x="1989" y="381.2324"/><rect fill="#CCE5FF" height="2" style="stroke:#3A3A3A;stroke-width:0.5;" width="4" x="1987" y="383.2324"/><rect fill="#CCE5FF" height="2" style="stroke:#3A3A3A;stroke-width:0.5;" width="4" x="1987" y="387.2324"/><text fill="#000000" font-family="sans-serif" font-size="30" lengthAdjust="spacing" textLength="326" x="1658" y="428.6055">Service d'Envoi d'Emails</text></g><!--link Customer to Produits--><g id="link_Customer_Produits"><path d="M140.75,167.9724 C165.14,158.3724 197.84,147.1724 228,142.2324 C381.52,117.1324 423.54,123.7924 578,142.2324 C618.71,147.0924 656.6304,154.9123 695.6504,164.7023 " fill="none" id="Customer-to-Produits" style="stroke:#999999;stroke-width:2.0;"/><polygon fill="#999999" points="701.47,166.1624,693.714,160.0925,696.6203,164.9457,691.7671,167.852,701.47,166.1624" style="stroke:#999999;stroke-width:2.0;"/><text fill="#000000" font-family="sans-serif" font-size="30" lengthAdjust="spacing" textLength="236" x="285" y="118.6055">Consulte Produits</text></g><!--link Customer to Commandes--><g id="link_Customer_Commandes"><path d="M140.7,186.7524 C251.62,194.2324 569.62,216.2324 578,223.2324 C588.59,232.0824 576.05,243.6724 586,253.2324 C607.22,273.6424 628.7754,285.144 657.2354,293.544 " fill="none" id="Customer-to-Commandes" style="stroke:#999999;stroke-width:2.0;"/><polygon fill="#999999" points="662.99,295.2424,655.4904,288.8583,658.1945,293.827,653.2258,296.5311,662.99,295.2424" style="stroke:#999999;stroke-width:2.0;"/><text fill="#000000" font-family="sans-serif" font-size="30" lengthAdjust="spacing" textLength="259" x="273.5" y="185.6055">Passe Commandes</text></g><!--link Customer to Comptes--><g id="link_Customer_Comptes"><path d="M125.63,234.5524 C146.27,274.0524 180.77,326.6624 228,353.2324 C296.07,391.5424 500.28,377.5324 578,385.2324 C588.37,386.2624 593.0108,386.7249 603.7208,387.8149 " fill="none" id="Customer-to-Comptes" style="stroke:#999999;stroke-width:2.0;"/><polygon fill="#999999" points="609.69,388.4224,601.1413,383.5317,604.7157,387.9162,600.3312,391.4906,609.69,388.4224" style="stroke:#999999;stroke-width:2.0;"/><text fill="#000000" font-family="sans-serif" font-size="30" lengthAdjust="spacing" textLength="226" x="290" y="345.6055">G&#232;re son compte</text></g><!--link Admin to Produits--><g id="link_Admin_Produits"><path d="M139.78,377.0924 C162.13,350.6624 193.06,320.4424 228,304.2324 C298.85,271.3724 514.97,318.3624 578,272.2324 C585.39,266.8224 578.96,259.1024 586,253.2324 C610.61,232.7324 635.7272,221.3195 666.9972,213.3195 " fill="none" id="Admin-to-Produits" style="stroke:#999999;stroke-width:2.0;"/><polygon fill="#999999" points="672.81,211.8324,663.0994,210.1879,667.966,213.0717,665.0822,217.9383,672.81,211.8324" style="stroke:#999999;stroke-width:2.0;"/><text fill="#000000" font-family="sans-serif" font-size="30" lengthAdjust="spacing" textLength="183" x="311.5" y="264.6055">G&#232;re Produits</text></g><!--link Admin to Commandes--><g id="link_Admin_Commandes"><path d="M198.11,442.2224 C320.56,459.1524 524.04,478.5324 578,430.2324 C590,419.5024 575.24,370.2124 586,358.2324 C606.22,335.7324 628.0257,323.4575 657.1757,315.0375 " fill="none" id="Admin-to-Commandes" style="stroke:#999999;stroke-width:2.0;"/><polygon fill="#999999" points="662.94,313.3724,653.1835,312.0271,658.1364,314.76,655.4035,319.7129,662.94,313.3724" style="stroke:#999999;stroke-width:2.0;"/><text fill="#000000" font-family="sans-serif" font-size="30" lengthAdjust="spacing" textLength="310" x="248" y="422.6055">Supervise Commandes</text></g><!--link Admin to Comptes--><g id="link_Admin_Comptes"><path d="M162.21,477.4124 C181.88,491.1224 204.74,504.1424 228,511.2324 C376.8,556.5824 425.39,541.3524 578,511.2324 C640.99,498.8024 702.8075,472.5437 750.6175,448.9937 " fill="none" id="Admin-to-Comptes" style="stroke:#999999;stroke-width:2.0;"/><polygon fill="#999999" points="756,446.3424,746.1588,446.731,751.5146,448.5518,749.6938,453.9076,756,446.3424" style="stroke:#999999;stroke-width:2.0;"/><text fill="#000000" font-family="sans-serif" font-size="30" lengthAdjust="spacing" textLength="348" x="229" y="503.6055">G&#232;re Comptes Utilisateurs</text></g><!--link Produits to SupplierSystem--><g id="link_Produits_SupplierSystem"><path d="M972.08,201.2324 C1157.83,201.2324 1468.49,201.2324 1659.29,201.2324 " fill="none" id="Produits-to-SupplierSystem" style="stroke:#999999;stroke-width:2.0;"/><polygon fill="#999999" points="1665.29,201.2324,1656.29,197.2324,1660.29,201.2324,1656.29,205.2324,1665.29,201.2324" style="stroke:#999999;stroke-width:2.0;"/><text fill="#000000" font-family="sans-serif" font-size="30" lengthAdjust="spacing" textLength="331" x="1174.5" y="193.6055">Synchronisation Produits</text></g><!--link Commandes to PaymentGateway--><g id="link_Commandes_PaymentGateway"><path d="M982.19,306.2324 C1164.07,306.2324 1455.26,306.2324 1643.79,306.2324 " fill="none" id="Commandes-to-PaymentGateway" style="stroke:#999999;stroke-width:2.0;"/><polygon fill="#999999" points="1649.79,306.2324,1640.79,302.2324,1644.79,306.2324,1640.79,310.2324,1649.79,306.2324" style="stroke:#999999;stroke-width:2.0;"/><text fill="#000000" font-family="sans-serif" font-size="30" lengthAdjust="spacing" textLength="275" x="1202.5" y="298.6055">Traitement Paiement</text></g><!--link Commandes to EmailService--><g id="link_Commandes_EmailService"><path d="M982.16,341.1324 C1010.32,346.4724 1039.44,351.4624 1067,355.2324 C1262.77,382.0624 1482.8871,396.3705 1636.8471,403.8705 " fill="none" id="Commandes-to-EmailService" style="stroke:#999999;stroke-width:2.0;"/><polygon fill="#999999" points="1642.84,404.1624,1634.0453,399.7293,1637.8459,403.9191,1633.656,407.7198,1642.84,404.1624" style="stroke:#999999;stroke-width:2.0;"/><text fill="#000000" font-family="sans-serif" font-size="30" lengthAdjust="spacing" textLength="544" x="1068" y="347.6055">Envoi Confirmation d'Achat / Notifications</text></g><!--SRC=[VLJBRjim4BphAnRgmQUWQTqWI0y57CNsBJ3Wz1Jam51hcp152alAYLlaVvBly8zrIScAPCYL03rMCxl3tQ56yA0y8OWTId1-hp7nock4EoNM98e28KV8hF7uwX5AMn5K1c5Ibbf9uPKr0J2za9Qn935nMsLAmLI8YMPCNQe_23ykXpvbLbk2B-D9E4y1jvPof3uaqRZou2sGMcyyv8fG1XL9CeAxmyTA6LKhz49f7TMNbgKYhBLz5hehCCULgBHl9Owx4f-5tAx9LYPl1Cnkmjb12Eav_ZS1w6QetnhEPJoIjuwwfcKkqB4YbzHfqamhD3u5uI2hdBVSJQuvkxeUZu-GILvm0kT916Q4nX0tPvnzcyr2bMMOeQi75HvuBgLrmdZNKHw3Xij5zRUdAysowHLd0vWGsPScU1EFOx2_uXXws2YvDUWSV3zfoTkGi9AhYZLsPJMXOL7Jo-br53NaYg5wU-SFxmLN2iub5WQ49Hq-7A-Rhn0Ts-tFPrSMOb_mVSvzVX7xqETq8Pn3miPI2w4m8D8EQLc5FO4K2cCHIKSDhAuYdfmBO-jGfWMRT8cq2_wCXEOv7qtDpgfm3n2NTbS49IaZLIbqSknOUdO_fh6RZ_TYfzRrvmNPl5BUFOMAnvU0cQEBW8ofmh158w9zEu6KdZlwsokjNBHZYmuVwX7mRyFWA-DT_Ny9hb_fmxlSy4DELWLaQ_QBnyPZJnU_MbtmatS69-1jYcqmFKDgfGPM7DXdw3-Sk19cp0_l_2Tql3mPWzpqUdkTLLOpFcKDm7kQs29Xm7rTmwI-gA5-ixnMIuzzOiHGTs_aXgm9rAu5k2cjlFuY-nk0KpoGu74LzUuuclyCksThvjPUvZ6k51MDHqSJkH4UliAzzMhLM9S5_GC0]--></g></svg>