<?xml version="1.0" encoding="us-ascii" standalone="no"?><svg xmlns="http://www.w3.org/2000/svg" xmlns:xlink="http://www.w3.org/1999/xlink" contentStyleType="text/css" height="777.6px" preserveAspectRatio="none" style="width:2359px;height:777px;background:#FFFFFF;" version="1.1" viewBox="0 0 2359 777" width="2359.8px" zoomAndPan="magnify"><defs/><g><!--cluster Front-End--><g id="cluster_Front-End"><path d="M5.1,6.7705 L104.1,6.7705 A2.25,2.25 0 0 1 105.6,8.2705 L109.8,38.3021 L398.7,38.3021 A1.5,1.5 0 0 1 400.2,39.8021 L400.2,428.8705 A1.5,1.5 0 0 1 398.7,430.3705 L5.1,430.3705 A1.5,1.5 0 0 1 3.6,428.8705 L3.6,8.2705 A1.5,1.5 0 0 1 5.1,6.7705 " fill="none" style="stroke:#000000;stroke-width:0.8999999999999999;"/><line style="stroke:#000000;stroke-width:0.8999999999999999;" x1="3.6" x2="109.8" y1="38.3021" y2="38.3021"/><text fill="#000000" font-family="sans-serif" font-size="21" font-weight="bold" lengthAdjust="spacing" textLength="98.4" x="6" y="30.6316">Front-End</text></g><!--cluster VueApp--><g id="cluster_VueApp"><rect fill="#90EE90" height="355.8" rx="1.5" ry="1.5" style="stroke:#006400;stroke-width:0.6;" width="358.2" x="22.8" y="55.3705"/><rect fill="#90EE90" height="6" style="stroke:#006400;stroke-width:0.6;" width="9" x="369" y="58.3705"/><rect fill="#90EE90" height="1.2" style="stroke:#006400;stroke-width:0.6;" width="2.4" x="367.8" y="59.5705"/><rect fill="#90EE90" height="1.2" style="stroke:#006400;stroke-width:0.6;" width="2.4" x="367.8" y="61.9705"/><text fill="#000000" font-family="sans-serif" font-size="21" font-style="italic" lengthAdjust="spacing" textLength="108" x="147.9" y="85.8316">&#171;FrontEnd&#187;</text><text fill="#000000" font-family="sans-serif" font-size="21" font-weight="bold" lengthAdjust="spacing" textLength="76.2" x="163.8" y="113.7633">VueApp</text></g><!--cluster Back-End--><g id="cluster_Back-End"><path d="M416.1,229.9705 L510.9,229.9705 A2.25,2.25 0 0 1 512.4,231.4705 L516.6,261.5021 L1311.3,261.5021 A1.5,1.5 0 0 1 1312.8,263.0021 L1312.8,677.2705 A1.5,1.5 0 0 1 1311.3,678.7705 L416.1,678.7705 A1.5,1.5 0 0 1 414.6,677.2705 L414.6,231.4705 A1.5,1.5 0 0 1 416.1,229.9705 " fill="none" style="stroke:#000000;stroke-width:0.8999999999999999;"/><line style="stroke:#000000;stroke-width:0.8999999999999999;" x1="414.6" x2="516.6" y1="261.5021" y2="261.5021"/><text fill="#000000" font-family="sans-serif" font-size="21" font-weight="bold" lengthAdjust="spacing" textLength="94.2" x="417" y="253.8316">Back-End</text></g><!--cluster LaravelAPI--><g id="cluster_LaravelAPI"><rect fill="#F08080" height="381" rx="1.5" ry="1.5" style="stroke:#8B0000;stroke-width:0.6;" width="859.8" x="433.8" y="278.5705"/><rect fill="#F08080" height="6" style="stroke:#8B0000;stroke-width:0.6;" width="9" x="1281.6" y="281.5705"/><rect fill="#F08080" height="1.2" style="stroke:#8B0000;stroke-width:0.6;" width="2.4" x="1280.4" y="282.7705"/><rect fill="#F08080" height="1.2" style="stroke:#8B0000;stroke-width:0.6;" width="2.4" x="1280.4" y="285.1705"/><text fill="#000000" font-family="sans-serif" font-size="21" font-style="italic" lengthAdjust="spacing" textLength="106.2" x="810.6" y="309.0316">&#171;BackEnd&#187;</text><text fill="#000000" font-family="sans-serif" font-size="21" font-weight="bold" lengthAdjust="spacing" textLength="105" x="811.2" y="336.9633">LaravelAPI</text></g><!--cluster MySQL--><g id="cluster_MySQL"><path d="M1332,552.1705 C1332,546.1705 1579.5,546.1705 1579.5,546.1705 C1579.5,546.1705 1827,546.1705 1827,552.1705 L1827,761.5705 C1827,767.5705 1579.5,767.5705 1579.5,767.5705 C1579.5,767.5705 1332,767.5705 1332,761.5705 L1332,552.1705 " fill="#87CEFA" style="stroke:#4169E1;stroke-width:0.6;"/><path d="M1332,552.1705 C1332,558.1705 1579.5,558.1705 1579.5,558.1705 C1579.5,558.1705 1827,558.1705 1827,552.1705 " fill="none" style="stroke:#4169E1;stroke-width:0.6;"/><text fill="#000000" font-family="sans-serif" font-size="21" font-weight="bold" lengthAdjust="spacing" textLength="72" x="1543.5" y="582.0316">MySQL</text></g><!--cluster Services Externes--><g id="cluster_Services Externes"><path d="M1847.7,478.3705 L2025.9,478.3705 A2.25,2.25 0 0 1 2027.4,479.8705 L2031.6,509.9021 L2345.1,509.9021 A1.5,1.5 0 0 1 2346.6,511.4021 L2346.6,677.2705 A1.5,1.5 0 0 1 2345.1,678.7705 L1847.7,678.7705 A1.5,1.5 0 0 1 1846.2,677.2705 L1846.2,479.8705 A1.5,1.5 0 0 1 1847.7,478.3705 " fill="none" style="stroke:#000000;stroke-width:0.8999999999999999;"/><line style="stroke:#000000;stroke-width:0.8999999999999999;" x1="1846.2" x2="2031.6" y1="509.9021" y2="509.9021"/><text fill="#000000" font-family="sans-serif" font-size="21" font-weight="bold" lengthAdjust="spacing" textLength="177.6" x="1848.6" y="502.2316">Services Externes</text></g><!--cluster Passerelle de Paiement--><g id="cluster_Passerelle de Paiement"><rect fill="#FAFAD2" height="132.6" rx="1.5" ry="1.5" style="stroke:#DAA520;stroke-width:0.6;" width="238.2" x="1865.4" y="526.9705"/><rect fill="#FAFAD2" height="6" style="stroke:#DAA520;stroke-width:0.6;" width="9" x="2091.6" y="529.9705"/><rect fill="#FAFAD2" height="1.2" style="stroke:#DAA520;stroke-width:0.6;" width="2.4" x="2090.4" y="531.1705"/><rect fill="#FAFAD2" height="1.2" style="stroke:#DAA520;stroke-width:0.6;" width="2.4" x="2090.4" y="533.5705"/><text fill="#000000" font-family="sans-serif" font-size="21" font-style="italic" lengthAdjust="spacing" textLength="169.8" x="1899.6" y="557.4316">&#171;ExternalService&#187;</text><text fill="#000000" font-family="sans-serif" font-size="21" font-weight="bold" lengthAdjust="spacing" textLength="228.6" x="1870.2" y="585.3633">Passerelle de Paiement</text></g><!--cluster Service d'Email--><g id="cluster_Service d'Email"><rect fill="#FAFAD2" height="132.6" rx="1.5" ry="1.5" style="stroke:#DAA520;stroke-width:0.6;" width="199.8" x="2127.6" y="526.9705"/><rect fill="#FAFAD2" height="6" style="stroke:#DAA520;stroke-width:0.6;" width="9" x="2315.4" y="529.9705"/><rect fill="#FAFAD2" height="1.2" style="stroke:#DAA520;stroke-width:0.6;" width="2.4" x="2314.2" y="531.1705"/><rect fill="#FAFAD2" height="1.2" style="stroke:#DAA520;stroke-width:0.6;" width="2.4" x="2314.2" y="533.5705"/><text fill="#000000" font-family="sans-serif" font-size="21" font-style="italic" lengthAdjust="spacing" textLength="169.8" x="2142.6" y="557.4316">&#171;ExternalService&#187;</text><text fill="#000000" font-family="sans-serif" font-size="21" font-weight="bold" lengthAdjust="spacing" textLength="151.2" x="2151.9" y="585.3633">Service d'Email</text></g><!--entity Interface Utilisateur--><g id="elem_Interface Utilisateur"><rect fill="#F1F1F1" height="45.9316" rx="1.5" ry="1.5" style="stroke:#181818;stroke-width:0.3;" width="199.8" x="37.5" y="127.3705"/><rect fill="#F1F1F1" height="6" style="stroke:#181818;stroke-width:0.3;" width="9" x="225.3" y="130.3705"/><rect fill="#F1F1F1" height="1.2" style="stroke:#181818;stroke-width:0.3;" width="2.4" x="224.1" y="131.5705"/><rect fill="#F1F1F1" height="1.2" style="stroke:#181818;stroke-width:0.3;" width="2.4" x="224.1" y="133.9705"/><text fill="#000000" font-family="sans-serif" font-size="21" lengthAdjust="spacing" textLength="175.8" x="46.5" y="162.0316">Interface Utilisateur</text></g><!--entity Routeur--><g id="elem_Routeur"><rect fill="#F1F1F1" height="45.9316" rx="1.5" ry="1.5" style="stroke:#181818;stroke-width:0.3;" width="96.6" x="258.3" y="127.3705"/><rect fill="#F1F1F1" height="6" style="stroke:#181818;stroke-width:0.3;" width="9" x="342.9" y="130.3705"/><rect fill="#F1F1F1" height="1.2" style="stroke:#181818;stroke-width:0.3;" width="2.4" x="341.7" y="131.5705"/><rect fill="#F1F1F1" height="1.2" style="stroke:#181818;stroke-width:0.3;" width="2.4" x="341.7" y="133.9705"/><text fill="#000000" font-family="sans-serif" font-size="21" lengthAdjust="spacing" textLength="72.6" x="267.3" y="162.0316">Routeur</text></g><!--entity Gestion d'?tat--><g id="elem_Gestion d'&#201;tat"><rect fill="#F1F1F1" height="45.9316" rx="1.5" ry="1.5" style="stroke:#181818;stroke-width:0.3;" width="152.4" x="61.2" y="350.5705"/><rect fill="#F1F1F1" height="6" style="stroke:#181818;stroke-width:0.3;" width="9" x="201.6" y="353.5705"/><rect fill="#F1F1F1" height="1.2" style="stroke:#181818;stroke-width:0.3;" width="2.4" x="200.4" y="354.7705"/><rect fill="#F1F1F1" height="1.2" style="stroke:#181818;stroke-width:0.3;" width="2.4" x="200.4" y="357.1705"/><text fill="#000000" font-family="sans-serif" font-size="21" lengthAdjust="spacing" textLength="128.4" x="70.2" y="385.2316">Gestion d'&#201;tat</text></g><!--entity Contr?leur d'Authentification--><g id="elem_Contr&#244;leur d'Authentification"><rect fill="#F1F1F1" height="45.9316" rx="1.5" ry="1.5" style="stroke:#181818;stroke-width:0.3;" width="279.6" x="448.2" y="350.5705"/><rect fill="#F1F1F1" height="6" style="stroke:#181818;stroke-width:0.3;" width="9" x="715.8" y="353.5705"/><rect fill="#F1F1F1" height="1.2" style="stroke:#181818;stroke-width:0.3;" width="2.4" x="714.6" y="354.7705"/><rect fill="#F1F1F1" height="1.2" style="stroke:#181818;stroke-width:0.3;" width="2.4" x="714.6" y="357.1705"/><text fill="#000000" font-family="sans-serif" font-size="21" lengthAdjust="spacing" textLength="255.6" x="457.2" y="385.2316">Contr&#244;leur d'Authentification</text></g><!--entity Contr?leur de Produits--><g id="elem_Contr&#244;leur de Produits"><rect fill="#F1F1F1" height="45.9316" rx="1.5" ry="1.5" style="stroke:#181818;stroke-width:0.3;" width="228.6" x="749.1" y="350.5705"/><rect fill="#F1F1F1" height="6" style="stroke:#181818;stroke-width:0.3;" width="9" x="965.7" y="353.5705"/><rect fill="#F1F1F1" height="1.2" style="stroke:#181818;stroke-width:0.3;" width="2.4" x="964.5" y="354.7705"/><rect fill="#F1F1F1" height="1.2" style="stroke:#181818;stroke-width:0.3;" width="2.4" x="964.5" y="357.1705"/><text fill="#000000" font-family="sans-serif" font-size="21" lengthAdjust="spacing" textLength="204.6" x="758.1" y="385.2316">Contr&#244;leur de Produits</text></g><!--entity Contr?leur de Commandes--><g id="elem_Contr&#244;leur de Commandes"><rect fill="#F1F1F1" height="45.9316" rx="1.5" ry="1.5" style="stroke:#181818;stroke-width:0.3;" width="268.8" x="999" y="350.5705"/><rect fill="#F1F1F1" height="6" style="stroke:#181818;stroke-width:0.3;" width="9" x="1255.8" y="353.5705"/><rect fill="#F1F1F1" height="1.2" style="stroke:#181818;stroke-width:0.3;" width="2.4" x="1254.6" y="354.7705"/><rect fill="#F1F1F1" height="1.2" style="stroke:#181818;stroke-width:0.3;" width="2.4" x="1254.6" y="357.1705"/><text fill="#000000" font-family="sans-serif" font-size="21" lengthAdjust="spacing" textLength="244.8" x="1008" y="385.2316">Contr&#244;leur de Commandes</text></g><!--entity Middleware--><g id="elem_Middleware"><rect fill="#F1F1F1" height="45.9316" rx="1.5" ry="1.5" style="stroke:#181818;stroke-width:0.3;" width="127.2" x="524.4" y="598.9705"/><rect fill="#F1F1F1" height="6" style="stroke:#181818;stroke-width:0.3;" width="9" x="639.6" y="601.9705"/><rect fill="#F1F1F1" height="1.2" style="stroke:#181818;stroke-width:0.3;" width="2.4" x="638.4" y="603.1705"/><rect fill="#F1F1F1" height="1.2" style="stroke:#181818;stroke-width:0.3;" width="2.4" x="638.4" y="605.5705"/><text fill="#000000" font-family="sans-serif" font-size="21" lengthAdjust="spacing" textLength="103.2" x="533.4" y="633.6316">Middleware</text></g><!--entity Couche de Service--><g id="elem_Couche de Service"><rect fill="#F1F1F1" height="45.9316" rx="1.5" ry="1.5" style="stroke:#181818;stroke-width:0.3;" width="196.2" x="672.9" y="598.9705"/><rect fill="#F1F1F1" height="6" style="stroke:#181818;stroke-width:0.3;" width="9" x="857.1" y="601.9705"/><rect fill="#F1F1F1" height="1.2" style="stroke:#181818;stroke-width:0.3;" width="2.4" x="855.9" y="603.1705"/><rect fill="#F1F1F1" height="1.2" style="stroke:#181818;stroke-width:0.3;" width="2.4" x="855.9" y="605.5705"/><text fill="#000000" font-family="sans-serif" font-size="21" lengthAdjust="spacing" textLength="172.2" x="681.9" y="633.6316">Couche de Service</text></g><!--entity Table des Utilisateurs--><g id="elem_Table des Utilisateurs"><rect fill="#F1F1F1" height="45.9316" rx="1.5" ry="1.5" style="stroke:#181818;stroke-width:0.3;" width="220.2" x="1358.7" y="598.9705"/><rect fill="#F1F1F1" height="6" style="stroke:#181818;stroke-width:0.3;" width="9" x="1566.9" y="601.9705"/><rect fill="#F1F1F1" height="1.2" style="stroke:#181818;stroke-width:0.3;" width="2.4" x="1565.7" y="603.1705"/><rect fill="#F1F1F1" height="1.2" style="stroke:#181818;stroke-width:0.3;" width="2.4" x="1565.7" y="605.5705"/><text fill="#000000" font-family="sans-serif" font-size="21" lengthAdjust="spacing" textLength="196.2" x="1367.7" y="633.6316">Table des Utilisateurs</text></g><!--entity Table des Produits--><g id="elem_Table des Produits"><rect fill="#F1F1F1" height="45.9316" rx="1.5" ry="1.5" style="stroke:#181818;stroke-width:0.3;" width="194.4" x="1600.2" y="598.9705"/><rect fill="#F1F1F1" height="6" style="stroke:#181818;stroke-width:0.3;" width="9" x="1782.6" y="601.9705"/><rect fill="#F1F1F1" height="1.2" style="stroke:#181818;stroke-width:0.3;" width="2.4" x="1781.4" y="603.1705"/><rect fill="#F1F1F1" height="1.2" style="stroke:#181818;stroke-width:0.3;" width="2.4" x="1781.4" y="605.5705"/><text fill="#000000" font-family="sans-serif" font-size="21" lengthAdjust="spacing" textLength="170.4" x="1609.2" y="633.6316">Table des Produits</text></g><!--entity Table des Commandes--><g id="elem_Table des Commandes"><rect fill="#F1F1F1" height="45.9316" rx="1.5" ry="1.5" style="stroke:#181818;stroke-width:0.3;" width="234.6" x="1351.5" y="706.9705"/><rect fill="#F1F1F1" height="6" style="stroke:#181818;stroke-width:0.3;" width="9" x="1574.1" y="709.9705"/><rect fill="#F1F1F1" height="1.2" style="stroke:#181818;stroke-width:0.3;" width="2.4" x="1572.9" y="711.1705"/><rect fill="#F1F1F1" height="1.2" style="stroke:#181818;stroke-width:0.3;" width="2.4" x="1572.9" y="713.5705"/><text fill="#000000" font-family="sans-serif" font-size="21" lengthAdjust="spacing" textLength="210.6" x="1360.5" y="741.6316">Table des Commandes</text></g><!--entity Table des Adresses--><g id="elem_Table des Adresses"><rect fill="#F1F1F1" height="45.9316" rx="1.5" ry="1.5" style="stroke:#181818;stroke-width:0.3;" width="205.2" x="1607.4" y="706.9705"/><rect fill="#F1F1F1" height="6" style="stroke:#181818;stroke-width:0.3;" width="9" x="1800.6" y="709.9705"/><rect fill="#F1F1F1" height="1.2" style="stroke:#181818;stroke-width:0.3;" width="2.4" x="1799.4" y="711.1705"/><rect fill="#F1F1F1" height="1.2" style="stroke:#181818;stroke-width:0.3;" width="2.4" x="1799.4" y="713.5705"/><text fill="#000000" font-family="sans-serif" font-size="21" lengthAdjust="spacing" textLength="181.2" x="1616.4" y="741.6316">Table des Adresses</text></g><!--entity API Stripe--><g id="elem_API Stripe"><rect fill="#F1F1F1" height="45.9316" rx="1.5" ry="1.5" style="stroke:#181818;stroke-width:0.3;" width="116.4" x="1932" y="598.9705"/><rect fill="#F1F1F1" height="6" style="stroke:#181818;stroke-width:0.3;" width="9" x="2036.4" y="601.9705"/><rect fill="#F1F1F1" height="1.2" style="stroke:#181818;stroke-width:0.3;" width="2.4" x="2035.2" y="603.1705"/><rect fill="#F1F1F1" height="1.2" style="stroke:#181818;stroke-width:0.3;" width="2.4" x="2035.2" y="605.5705"/><text fill="#000000" font-family="sans-serif" font-size="21" lengthAdjust="spacing" textLength="92.4" x="1941" y="633.6316">API Stripe</text></g><!--entity Serveur SMTP--><g id="elem_Serveur SMTP"><rect fill="#F1F1F1" height="45.9316" rx="1.5" ry="1.5" style="stroke:#181818;stroke-width:0.3;" width="159" x="2153.7" y="598.9705"/><rect fill="#F1F1F1" height="6" style="stroke:#181818;stroke-width:0.3;" width="9" x="2300.7" y="601.9705"/><rect fill="#F1F1F1" height="1.2" style="stroke:#181818;stroke-width:0.3;" width="2.4" x="2299.5" y="603.1705"/><rect fill="#F1F1F1" height="1.2" style="stroke:#181818;stroke-width:0.3;" width="2.4" x="2299.5" y="605.5705"/><text fill="#000000" font-family="sans-serif" font-size="21" lengthAdjust="spacing" textLength="135" x="2162.7" y="633.6316">Serveur SMTP</text></g><!--link VueApp to LaravelAPI--><g id="link_VueApp_LaravelAPI"><path d="M381.4705,151.0959 C381.7588,151.0975 382.0585,151.0992 382.3696,151.101 C383.6141,151.1081 385.0402,151.1168 386.642,151.1272 C393.0491,151.1687 402.2667,151.2382 413.9113,151.3513 C437.2004,151.5777 470.1973,151.9789 509.833,152.6814 C589.1046,154.0864 694.9316,156.6966 802.7632,161.5233 C1018.4265,171.1765 1242.108,189.6955 1277.4,225.1705 C1300.287,248.1745 1303.4055,284.362 1300.671,315.1833 C1299.3037,330.5939 1296.4732,344.6629 1293.9189,355.0717 C1293.8391,355.397 1294.6298,352.2255 1294.5505,352.5435 " fill="none" id="VueApp-to-LaravelAPI" style="stroke:#008000;stroke-width:0.6;"/><polygon fill="#008000" points="1293.6803,356.0368,1297.3145,351.377,1294.4055,353.1257,1292.6568,350.2168,1293.6803,356.0368" style="stroke:#008000;stroke-width:0.6;"/><text fill="#000000" font-family="sans-serif" font-size="21" lengthAdjust="spacing" textLength="229.8" x="1266" y="214.8316">Requ&#234;tes HTTP RESTful</text></g><!--link LaravelAPI to MySQL--><g id="link_LaravelAPI_MySQL"><path d="M1293.6193,399.0944 C1293.6775,399.3942 1293.7362,399.6963 1293.7953,400.0006 C1293.9135,400.6092 1294.0334,401.2265 1294.1549,401.8524 C1294.398,403.1041 1294.6478,404.3901 1294.9038,405.7084 C1295.4158,408.345 1295.953,411.1112 1296.5125,413.9926 C1300.9888,437.0433 1306.8956,467.4633 1312.8023,497.8825 C1318.7089,528.3018 1324.6153,558.7203 1329.0908,581.7679 C1329.6503,584.6489 1330.1874,587.4147 1330.6993,590.0509 C1330.9553,591.369 1331.2049,592.6548 1331.448,593.9063 C1331.5695,594.5321 1331.6894,595.1493 1331.8075,595.7577 C1331.8666,596.062 1331.239,592.83 1331.2972,593.1298 " fill="none" id="LaravelAPI-to-MySQL" style="stroke:#0000FF;stroke-width:0.6;"/><polygon fill="#0000FF" points="1331.9835,596.6638,1333.31,590.9053,1331.4116,593.7188,1328.5981,591.8203,1331.9835,596.6638" style="stroke:#0000FF;stroke-width:0.6;"/><text fill="#000000" font-family="sans-serif" font-size="21" lengthAdjust="spacing" textLength="244.2" x="1308" y="463.2316">Requ&#234;tes SQL Read/Write</text></g><!--link LaravelAPI to Passerelle de Paiement--><g id="link_LaravelAPI_Passerelle de Paiement"><path d="M1294.0053,375.2375 C1294.2318,375.2796 1294.4654,375.323 1294.7059,375.3676 C1295.1871,375.457 1295.6963,375.5516 1296.233,375.6513 C1300.527,376.4488 1306.5846,377.574 1314.1518,378.9795 C1329.286,381.7907 1350.4582,385.7236 1375.6352,390.4012 C1425.9892,399.7564 1492.3627,412.0904 1558.491,424.3863 C1690.7475,448.978 1822.023,473.4175 1822.2,473.5705 C1834.98,484.792 1844.3768,499.4474 1851.2814,515.167 C1854.7338,523.0268 1857.5631,531.1527 1859.8808,539.2484 C1861.0397,543.2963 1862.0706,547.3366 1862.9876,551.3324 C1863.4461,553.3303 1863.8761,555.317 1864.2793,557.288 C1864.4809,558.2735 1864.6759,559.255 1864.8643,560.2321 C1864.9585,560.7206 1865.0512,561.208 1865.1422,561.6941 C1865.1877,561.9372 1864.5799,558.6397 1864.6246,558.8822 " fill="none" id="LaravelAPI-to-Passerelle de Paiement" style="stroke:#FFA500;stroke-width:0.6;"/><polygon fill="#FFA500" points="1865.2775,562.4225,1866.6584,556.6768,1864.7334,559.4723,1861.938,557.5473,1865.2775,562.4225" style="stroke:#FFA500;stroke-width:0.6;"/><text fill="#000000" font-family="sans-serif" font-size="21" lengthAdjust="spacing" textLength="238.2" x="1794.6" y="463.2316">Traitement des Paiements</text></g><!--link LaravelAPI to Service d'Email--><g id="link_LaravelAPI_Service d'Email"><path d="M1293.8451,374.4324 C1294.8628,374.4657 1296.0292,374.5043 1297.3393,374.5479 C1302.5798,374.7225 1310.1209,374.9795 1319.6521,375.3195 C1338.7145,375.9993 1365.7373,377.011 1398.2367,378.359 C1463.2356,381.0552 1550.1409,385.0971 1639.0823,390.5223 C1816.965,401.3725 2002.992,417.7555 2038.2,439.9705 C2076.03,463.8415 2099.4405,508.183 2113.4618,547.0615 C2116.9671,556.7811 2119.8855,566.1593 2122.2958,574.7909 C2123.5009,579.1066 2124.579,583.2357 2125.5398,587.1275 C2126.0203,589.0734 2126.4714,590.96 2126.8944,592.7809 C2127.1059,593.6914 2126.5189,591.0735 2126.7165,591.9503 " fill="none" id="LaravelAPI-to-Service d'Email" style="stroke:#A52A2A;stroke-width:0.6;"/><polygon fill="#A52A2A" points="2127.508,595.4622,2128.662,589.6667,2126.8484,592.5356,2123.9794,590.7221,2127.508,595.4622" style="stroke:#A52A2A;stroke-width:0.6;"/><text fill="#000000" font-family="sans-serif" font-size="21" lengthAdjust="spacing" textLength="287.4" x="2067.6" y="463.2316">Envoi de Notifications par Email</text></g><!--SRC=[bLJBRjim4BphAnRkmIUZXwAN8WZWE4uQ82bKoMrH63dGujeXJ9Cg7qdS8X_GFubxxX_enxgK55cotJOvITgTMGw78_RXjDZCXH86l88phLmglYCif9un2Rds1fps5YHQA3QosAnGEHlPfL0vCsm57EVCIzSmtxoDeZx4eLSyEaCqZc3TMc8rBGpAz2hNbj4Wu1xcXhW3LBmrjKGeMWf-H00dB5ikZFQAZxJKvkZeB536YXyVmwLOtBXpWwW2K1kEPXzqoipo2HEKxYDE9AqHFRnK-unOBvCU2Ytb8ssOt5M-nGJX2VAkx6txsQfdp5PrhfKgDjWvGUPOw1_IMubCb-iJwR4h4nAzPhAkD-gUBycYkHKPlU2zGwCwalxZuRXaC9bM8veKQCbH9Pf_HIdrtQwh-wo6qFLt7zXiAgSdMo3qokWCw1HwfSIjuCyUXtaEdN051C3qGj7SESiGFZaXXMKElRckUedshQzpj4ve1RnV_7JCXUf3P_bWoQ7LByc-MvJ3-0BQEQa5Z4YHANvBMeX63xsx8OwOYuo5rQuFW11YexaNpXxkZlHgnHJ7f_QLu5pY7JFOu7rsWm5QkzdifOdTrJhzU5bAd4xOJ0QmRJjKpcwrsefQvOwKLdt8ANysbDi6fa_f6zVfstMo5pDY6KfIgJvc0iFLruD3-QZz3RQdpeYytcLdNeqcuySh9kG_1uL2S3YzciIDONtQeb9uJqT5Fuq34UB4id1qDgfZDvY-MeHxxdfmtCx2E-Wb-CqNlnpj-Fra4aCoJYTpBtjH2qNa6VtEWLkTIOSM2Wao_lgB4GvtYNIDgKL9_QjnD6rY6773PtMITS_koJ3whjp3lciqPQnkjGYpF-XjUYtGrG4LAFe3]--></g></svg>