<?xml version="1.0" encoding="us-ascii" standalone="no"?><svg xmlns="http://www.w3.org/2000/svg" xmlns:xlink="http://www.w3.org/1999/xlink" contentStyleType="text/css" height="569.4px" preserveAspectRatio="none" style="width:1627px;height:569px;background:#FFFFFF;" version="1.1" viewBox="0 0 1627 569" width="1627.2px" zoomAndPan="magnify"><defs/><g><!--cluster Front-End--><g id="cluster_Front-End"><path d="M5.1,3.6082 L47.7,3.6082 A2.25,2.25 0 0 1 49.2,5.1082 L53.4,18.3809 L293.7,18.3809 A1.5,1.5 0 0 1 295.2,19.8809 L295.2,302.7082 A1.5,1.5 0 0 1 293.7,304.2082 L5.1,304.2082 A1.5,1.5 0 0 1 3.6,302.7082 L3.6,5.1082 A1.5,1.5 0 0 1 5.1,3.6082 " fill="none" style="stroke:#000000;stroke-width:0.8999999999999999;"/><line style="stroke:#000000;stroke-width:0.8999999999999999;" x1="3.6" x2="53.4" y1="18.3809" y2="18.3809"/><text fill="#000000" font-family="sans-serif" font-size="8.4" font-weight="bold" lengthAdjust="spacing" textLength="42" x="6" y="13.8727">Front-End</text></g><!--cluster VueApp--><g id="cluster_VueApp"><rect fill="#90EE90" height="249.6" rx="1.5" ry="1.5" style="stroke:#006400;stroke-width:0.6;" width="253.2" x="22.8" y="35.4082"/><rect fill="#90EE90" height="6" style="stroke:#006400;stroke-width:0.6;" width="9" x="264" y="38.4082"/><rect fill="#90EE90" height="1.2" style="stroke:#006400;stroke-width:0.6;" width="2.4" x="262.8" y="39.6082"/><rect fill="#90EE90" height="1.2" style="stroke:#006400;stroke-width:0.6;" width="2.4" x="262.8" y="42.0082"/><text fill="#000000" font-family="sans-serif" font-size="12" font-style="italic" lengthAdjust="spacing" textLength="61.8" x="118.5" y="56.1574">&#171;FrontEnd&#187;</text><text fill="#000000" font-family="sans-serif" font-size="12" font-weight="bold" lengthAdjust="spacing" textLength="43.8" x="127.5" y="72.1184">VueApp</text></g><!--cluster Back-End--><g id="cluster_Back-End"><path d="M311.1,156.6082 L351.3,156.6082 A2.25,2.25 0 0 1 352.8,158.1082 L357,171.3809 L906.9,171.3809 A1.5,1.5 0 0 1 908.4,172.8809 L908.4,480.9082 A1.5,1.5 0 0 1 906.9,482.4082 L311.1,482.4082 A1.5,1.5 0 0 1 309.6,480.9082 L309.6,158.1082 A1.5,1.5 0 0 1 311.1,156.6082 " fill="none" style="stroke:#000000;stroke-width:0.8999999999999999;"/><line style="stroke:#000000;stroke-width:0.8999999999999999;" x1="309.6" x2="357" y1="171.3809" y2="171.3809"/><text fill="#000000" font-family="sans-serif" font-size="8.4" font-weight="bold" lengthAdjust="spacing" textLength="39.6" x="312" y="166.8727">Back-End</text></g><!--cluster LaravelAPI--><g id="cluster_LaravelAPI"><rect fill="#F08080" height="274.8" rx="1.5" ry="1.5" style="stroke:#8B0000;stroke-width:0.6;" width="560.4" x="328.8" y="188.4082"/><rect fill="#F08080" height="6" style="stroke:#8B0000;stroke-width:0.6;" width="9" x="877.2" y="191.4082"/><rect fill="#F08080" height="1.2" style="stroke:#8B0000;stroke-width:0.6;" width="2.4" x="876" y="192.6082"/><rect fill="#F08080" height="1.2" style="stroke:#8B0000;stroke-width:0.6;" width="2.4" x="876" y="195.0082"/><text fill="#000000" font-family="sans-serif" font-size="12" font-style="italic" lengthAdjust="spacing" textLength="60.6" x="578.7" y="209.1574">&#171;BackEnd&#187;</text><text fill="#000000" font-family="sans-serif" font-size="12" font-weight="bold" lengthAdjust="spacing" textLength="60" x="579" y="225.1184">LaravelAPI</text></g><!--cluster MySQL--><g id="cluster_MySQL"><path d="M927.6,379.8082 C927.6,373.8082 1092.9,373.8082 1092.9,373.8082 C1092.9,373.8082 1258.2,373.8082 1258.2,379.8082 L1258.2,553.2082 C1258.2,559.2082 1092.9,559.2082 1092.9,559.2082 C1092.9,559.2082 927.6,559.2082 927.6,553.2082 L927.6,379.8082 " fill="#87CEFA" style="stroke:#4169E1;stroke-width:0.6;"/><path d="M927.6,379.8082 C927.6,385.8082 1092.9,385.8082 1092.9,385.8082 C1092.9,385.8082 1258.2,385.8082 1258.2,379.8082 " fill="none" style="stroke:#4169E1;stroke-width:0.6;"/><text fill="#000000" font-family="sans-serif" font-size="12" font-weight="bold" lengthAdjust="spacing" textLength="41.4" x="1072.2" y="399.9574">MySQL</text></g><!--cluster Services Externes--><g id="cluster_Services Externes"><path d="M1278.9,334.8082 L1356.9,334.8082 A2.25,2.25 0 0 1 1358.4,336.3082 L1362.6,349.5809 L1621.5,349.5809 A1.5,1.5 0 0 1 1623,351.0809 L1623,480.9082 A1.5,1.5 0 0 1 1621.5,482.4082 L1278.9,482.4082 A1.5,1.5 0 0 1 1277.4,480.9082 L1277.4,336.3082 A1.5,1.5 0 0 1 1278.9,334.8082 " fill="none" style="stroke:#000000;stroke-width:0.8999999999999999;"/><line style="stroke:#000000;stroke-width:0.8999999999999999;" x1="1277.4" x2="1362.6" y1="349.5809" y2="349.5809"/><text fill="#000000" font-family="sans-serif" font-size="8.4" font-weight="bold" lengthAdjust="spacing" textLength="77.4" x="1279.8" y="345.0727">Services Externes</text></g><!--cluster Passerelle de Paiement--><g id="cluster_Passerelle de Paiement"><rect fill="#FAFAD2" height="96.6" rx="1.5" ry="1.5" style="stroke:#DAA520;stroke-width:0.6;" width="141" x="1296.6" y="366.6082"/><rect fill="#FAFAD2" height="6" style="stroke:#DAA520;stroke-width:0.6;" width="9" x="1425.6" y="369.6082"/><rect fill="#FAFAD2" height="1.2" style="stroke:#DAA520;stroke-width:0.6;" width="2.4" x="1424.4" y="370.8082"/><rect fill="#FAFAD2" height="1.2" style="stroke:#DAA520;stroke-width:0.6;" width="2.4" x="1424.4" y="373.2082"/><text fill="#000000" font-family="sans-serif" font-size="12" font-style="italic" lengthAdjust="spacing" textLength="97.2" x="1318.5" y="387.3574">&#171;ExternalService&#187;</text><text fill="#000000" font-family="sans-serif" font-size="12" font-weight="bold" lengthAdjust="spacing" textLength="131.4" x="1301.4" y="403.3184">Passerelle de Paiement</text></g><!--cluster Service d'Email--><g id="cluster_Service d'Email"><rect fill="#FAFAD2" height="96.6" rx="1.5" ry="1.5" style="stroke:#DAA520;stroke-width:0.6;" width="142.2" x="1461.6" y="366.6082"/><rect fill="#FAFAD2" height="6" style="stroke:#DAA520;stroke-width:0.6;" width="9" x="1591.8" y="369.6082"/><rect fill="#FAFAD2" height="1.2" style="stroke:#DAA520;stroke-width:0.6;" width="2.4" x="1590.6" y="370.8082"/><rect fill="#FAFAD2" height="1.2" style="stroke:#DAA520;stroke-width:0.6;" width="2.4" x="1590.6" y="373.2082"/><text fill="#000000" font-family="sans-serif" font-size="12" font-style="italic" lengthAdjust="spacing" textLength="97.2" x="1484.1" y="387.3574">&#171;ExternalService&#187;</text><text fill="#000000" font-family="sans-serif" font-size="12" font-weight="bold" lengthAdjust="spacing" textLength="86.4" x="1489.5" y="403.3184">Service d'Email</text></g><!--entity Interface Utilisateur--><g id="elem_Interface Utilisateur"><rect fill="#F1F1F1" height="33.9609" rx="1.5" ry="1.5" style="stroke:#181818;stroke-width:0.3;" width="126" x="37.2" y="83.4082"/><rect fill="#F1F1F1" height="6" style="stroke:#181818;stroke-width:0.3;" width="9" x="151.2" y="86.4082"/><rect fill="#F1F1F1" height="1.2" style="stroke:#181818;stroke-width:0.3;" width="2.4" x="150" y="87.6082"/><rect fill="#F1F1F1" height="1.2" style="stroke:#181818;stroke-width:0.3;" width="2.4" x="150" y="90.0082"/><text fill="#000000" font-family="sans-serif" font-size="12" lengthAdjust="spacing" textLength="102" x="46.2" y="108.3574">Interface Utilisateur</text></g><!--entity Routeur--><g id="elem_Routeur"><rect fill="#F1F1F1" height="33.9609" rx="1.5" ry="1.5" style="stroke:#181818;stroke-width:0.3;" width="65.4" x="184.5" y="83.4082"/><rect fill="#F1F1F1" height="6" style="stroke:#181818;stroke-width:0.3;" width="9" x="237.9" y="86.4082"/><rect fill="#F1F1F1" height="1.2" style="stroke:#181818;stroke-width:0.3;" width="2.4" x="236.7" y="87.6082"/><rect fill="#F1F1F1" height="1.2" style="stroke:#181818;stroke-width:0.3;" width="2.4" x="236.7" y="90.0082"/><text fill="#000000" font-family="sans-serif" font-size="12" lengthAdjust="spacing" textLength="41.4" x="193.5" y="108.3574">Routeur</text></g><!--entity Gestion d'?tat--><g id="elem_Gestion d'&#201;tat"><rect fill="#F1F1F1" height="33.9609" rx="1.5" ry="1.5" style="stroke:#181818;stroke-width:0.3;" width="99" x="50.7" y="236.4082"/><rect fill="#F1F1F1" height="6" style="stroke:#181818;stroke-width:0.3;" width="9" x="137.7" y="239.4082"/><rect fill="#F1F1F1" height="1.2" style="stroke:#181818;stroke-width:0.3;" width="2.4" x="136.5" y="240.6082"/><rect fill="#F1F1F1" height="1.2" style="stroke:#181818;stroke-width:0.3;" width="2.4" x="136.5" y="243.0082"/><text fill="#000000" font-family="sans-serif" font-size="12" lengthAdjust="spacing" textLength="75" x="59.7" y="261.3574">Gestion d'&#201;tat</text></g><!--entity Contr?leur d'Authentification--><g id="elem_Contr&#244;leur d'Authentification"><rect fill="#F1F1F1" height="33.9609" rx="1.5" ry="1.5" style="stroke:#181818;stroke-width:0.3;" width="170.4" x="343.2" y="236.4082"/><rect fill="#F1F1F1" height="6" style="stroke:#181818;stroke-width:0.3;" width="9" x="501.6" y="239.4082"/><rect fill="#F1F1F1" height="1.2" style="stroke:#181818;stroke-width:0.3;" width="2.4" x="500.4" y="240.6082"/><rect fill="#F1F1F1" height="1.2" style="stroke:#181818;stroke-width:0.3;" width="2.4" x="500.4" y="243.0082"/><text fill="#000000" font-family="sans-serif" font-size="12" lengthAdjust="spacing" textLength="146.4" x="352.2" y="261.3574">Contr&#244;leur d'Authentification</text></g><!--entity Contr?leur de Produits--><g id="elem_Contr&#244;leur de Produits"><rect fill="#F1F1F1" height="33.9609" rx="1.5" ry="1.5" style="stroke:#181818;stroke-width:0.3;" width="142.2" x="534.9" y="236.4082"/><rect fill="#F1F1F1" height="6" style="stroke:#181818;stroke-width:0.3;" width="9" x="665.1" y="239.4082"/><rect fill="#F1F1F1" height="1.2" style="stroke:#181818;stroke-width:0.3;" width="2.4" x="663.9" y="240.6082"/><rect fill="#F1F1F1" height="1.2" style="stroke:#181818;stroke-width:0.3;" width="2.4" x="663.9" y="243.0082"/><text fill="#000000" font-family="sans-serif" font-size="12" lengthAdjust="spacing" textLength="118.2" x="543.9" y="261.3574">Contr&#244;leur de Produits</text></g><!--entity Contr?leur de Commandes--><g id="elem_Contr&#244;leur de Commandes"><rect fill="#F1F1F1" height="33.9609" rx="1.5" ry="1.5" style="stroke:#181818;stroke-width:0.3;" width="165" x="698.1" y="236.4082"/><rect fill="#F1F1F1" height="6" style="stroke:#181818;stroke-width:0.3;" width="9" x="851.1" y="239.4082"/><rect fill="#F1F1F1" height="1.2" style="stroke:#181818;stroke-width:0.3;" width="2.4" x="849.9" y="240.6082"/><rect fill="#F1F1F1" height="1.2" style="stroke:#181818;stroke-width:0.3;" width="2.4" x="849.9" y="243.0082"/><text fill="#000000" font-family="sans-serif" font-size="12" lengthAdjust="spacing" textLength="141" x="707.1" y="261.3574">Contr&#244;leur de Commandes</text></g><!--entity Middleware--><g id="elem_Middleware"><rect fill="#F1F1F1" height="33.9609" rx="1.5" ry="1.5" style="stroke:#181818;stroke-width:0.3;" width="85.2" x="385.8" y="414.6082"/><rect fill="#F1F1F1" height="6" style="stroke:#181818;stroke-width:0.3;" width="9" x="459" y="417.6082"/><rect fill="#F1F1F1" height="1.2" style="stroke:#181818;stroke-width:0.3;" width="2.4" x="457.8" y="418.8082"/><rect fill="#F1F1F1" height="1.2" style="stroke:#181818;stroke-width:0.3;" width="2.4" x="457.8" y="421.2082"/><text fill="#000000" font-family="sans-serif" font-size="12" lengthAdjust="spacing" textLength="61.2" x="394.8" y="439.5574">Middleware</text></g><!--entity Couche de Service--><g id="elem_Couche de Service"><rect fill="#F1F1F1" height="33.9609" rx="1.5" ry="1.5" style="stroke:#181818;stroke-width:0.3;" width="123" x="492.3" y="414.6082"/><rect fill="#F1F1F1" height="6" style="stroke:#181818;stroke-width:0.3;" width="9" x="603.3" y="417.6082"/><rect fill="#F1F1F1" height="1.2" style="stroke:#181818;stroke-width:0.3;" width="2.4" x="602.1" y="418.8082"/><rect fill="#F1F1F1" height="1.2" style="stroke:#181818;stroke-width:0.3;" width="2.4" x="602.1" y="421.2082"/><text fill="#000000" font-family="sans-serif" font-size="12" lengthAdjust="spacing" textLength="99" x="501.3" y="439.5574">Couche de Service</text></g><!--entity Table des Utilisateurs--><g id="elem_Table des Utilisateurs"><rect fill="#F1F1F1" height="33.9609" rx="1.5" ry="1.5" style="stroke:#181818;stroke-width:0.3;" width="137.4" x="953.7" y="414.6082"/><rect fill="#F1F1F1" height="6" style="stroke:#181818;stroke-width:0.3;" width="9" x="1079.1" y="417.6082"/><rect fill="#F1F1F1" height="1.2" style="stroke:#181818;stroke-width:0.3;" width="2.4" x="1077.9" y="418.8082"/><rect fill="#F1F1F1" height="1.2" style="stroke:#181818;stroke-width:0.3;" width="2.4" x="1077.9" y="421.2082"/><text fill="#000000" font-family="sans-serif" font-size="12" lengthAdjust="spacing" textLength="113.4" x="962.7" y="439.5574">Table des Utilisateurs</text></g><!--entity Table des Produits--><g id="elem_Table des Produits"><rect fill="#F1F1F1" height="33.9609" rx="1.5" ry="1.5" style="stroke:#181818;stroke-width:0.3;" width="123" x="1112.1" y="414.6082"/><rect fill="#F1F1F1" height="6" style="stroke:#181818;stroke-width:0.3;" width="9" x="1223.1" y="417.6082"/><rect fill="#F1F1F1" height="1.2" style="stroke:#181818;stroke-width:0.3;" width="2.4" x="1221.9" y="418.8082"/><rect fill="#F1F1F1" height="1.2" style="stroke:#181818;stroke-width:0.3;" width="2.4" x="1221.9" y="421.2082"/><text fill="#000000" font-family="sans-serif" font-size="12" lengthAdjust="spacing" textLength="99" x="1121.1" y="439.5574">Table des Produits</text></g><!--entity Table des Commandes--><g id="elem_Table des Commandes"><rect fill="#F1F1F1" height="33.9609" rx="1.5" ry="1.5" style="stroke:#181818;stroke-width:0.3;" width="145.8" x="947.1" y="510.6082"/><rect fill="#F1F1F1" height="6" style="stroke:#181818;stroke-width:0.3;" width="9" x="1080.9" y="513.6082"/><rect fill="#F1F1F1" height="1.2" style="stroke:#181818;stroke-width:0.3;" width="2.4" x="1079.7" y="514.8082"/><rect fill="#F1F1F1" height="1.2" style="stroke:#181818;stroke-width:0.3;" width="2.4" x="1079.7" y="517.2082"/><text fill="#000000" font-family="sans-serif" font-size="12" lengthAdjust="spacing" textLength="121.8" x="956.1" y="535.5574">Table des Commandes</text></g><!--entity Table des Adresses--><g id="elem_Table des Adresses"><rect fill="#F1F1F1" height="33.9609" rx="1.5" ry="1.5" style="stroke:#181818;stroke-width:0.3;" width="129.6" x="1114.2" y="510.6082"/><rect fill="#F1F1F1" height="6" style="stroke:#181818;stroke-width:0.3;" width="9" x="1231.8" y="513.6082"/><rect fill="#F1F1F1" height="1.2" style="stroke:#181818;stroke-width:0.3;" width="2.4" x="1230.6" y="514.8082"/><rect fill="#F1F1F1" height="1.2" style="stroke:#181818;stroke-width:0.3;" width="2.4" x="1230.6" y="517.2082"/><text fill="#000000" font-family="sans-serif" font-size="12" lengthAdjust="spacing" textLength="105.6" x="1123.2" y="535.5574">Table des Adresses</text></g><!--entity API Stripe--><g id="elem_API Stripe"><rect fill="#F1F1F1" height="33.9609" rx="1.5" ry="1.5" style="stroke:#181818;stroke-width:0.3;" width="78" x="1333.8" y="414.6082"/><rect fill="#F1F1F1" height="6" style="stroke:#181818;stroke-width:0.3;" width="9" x="1399.8" y="417.6082"/><rect fill="#F1F1F1" height="1.2" style="stroke:#181818;stroke-width:0.3;" width="2.4" x="1398.6" y="418.8082"/><rect fill="#F1F1F1" height="1.2" style="stroke:#181818;stroke-width:0.3;" width="2.4" x="1398.6" y="421.2082"/><text fill="#000000" font-family="sans-serif" font-size="12" lengthAdjust="spacing" textLength="54" x="1342.8" y="439.5574">API Stripe</text></g><!--entity Serveur SMTP--><g id="elem_Serveur SMTP"><rect fill="#F1F1F1" height="33.9609" rx="1.5" ry="1.5" style="stroke:#181818;stroke-width:0.3;" width="101.4" x="1487.7" y="414.6082"/><rect fill="#F1F1F1" height="6" style="stroke:#181818;stroke-width:0.3;" width="9" x="1577.1" y="417.6082"/><rect fill="#F1F1F1" height="1.2" style="stroke:#181818;stroke-width:0.3;" width="2.4" x="1575.9" y="418.8082"/><rect fill="#F1F1F1" height="1.2" style="stroke:#181818;stroke-width:0.3;" width="2.4" x="1575.9" y="421.2082"/><text fill="#000000" font-family="sans-serif" font-size="12" lengthAdjust="spacing" textLength="77.4" x="1496.7" y="439.5574">Serveur SMTP</text></g><!--link VueApp to LaravelAPI--><g id="link_VueApp_LaravelAPI"><path d="M276.6497,101.1558 C277.1247,101.1603 277.6295,101.1653 278.1636,101.1707 C282.4364,101.2136 288.5834,101.2817 296.3492,101.3844 C311.8808,101.5898 333.8873,101.9337 360.324,102.491 C413.1975,103.6057 483.792,105.5745 555.75,108.9982 C699.666,115.8457 849.036,128.5132 873,151.8082 C888.957,167.3212 891.9675,192.0547 890.9108,213.1747 C890.6466,218.4547 890.1282,223.5089 889.4943,228.1366 C889.4151,228.7151 889.8548,225.7248 889.7723,226.2896 " fill="none" id="VueApp-to-LaravelAPI" style="stroke:#008000;stroke-width:0.6;"/><polygon fill="#008000" points="889.2515,229.8517,892.4074,224.8557,889.6855,226.8832,887.6579,224.1613,889.2515,229.8517" style="stroke:#008000;stroke-width:0.6;"/><text fill="#000000" font-family="sans-serif" font-size="7.8" lengthAdjust="spacing" textLength="85.2" x="865.8" y="144.6252">Requ&#234;tes HTTP RESTful</text></g><!--link LaravelAPI to MySQL--><g id="link_LaravelAPI_MySQL"><path d="M889.2193,271.8815 C889.2775,272.0963 889.3362,272.3126 889.3953,272.5305 C889.5135,272.9662 889.6334,273.4083 889.7549,273.8565 C889.998,274.7528 890.2478,275.6736 890.5038,276.6176 C891.0158,278.5056 891.553,280.4863 892.1125,282.5495 C896.5888,299.055 902.4956,320.8365 908.4023,342.6172 C914.3089,364.398 920.2153,386.178 924.6908,402.6804 C925.2503,404.7432 925.7874,406.7235 926.2993,408.6111 C926.5553,409.5549 926.8049,410.4755 927.048,411.3716 C927.1695,411.8197 927.2894,412.2616 927.4075,412.6973 C927.4666,412.9151 926.5829,409.6569 926.6411,409.8715 " fill="none" id="LaravelAPI-to-MySQL" style="stroke:#0000FF;stroke-width:0.6;"/><polygon fill="#0000FF" points="927.5835,413.346,928.4863,407.5061,926.7982,410.4506,923.8536,408.7625,927.5835,413.346" style="stroke:#0000FF;stroke-width:0.6;"/><text fill="#000000" font-family="sans-serif" font-size="7.8" lengthAdjust="spacing" textLength="92.4" x="903.6" y="322.8252">Requ&#234;tes SQL Read/Write</text></g><!--link LaravelAPI to Passerelle de Paiement--><g id="link_LaravelAPI_Passerelle de Paiement"><path d="M889.6195,254.5479 C889.9588,254.5772 890.3139,254.6079 890.6844,254.6401 C891.4254,254.7046 892.2282,254.7749 893.0907,254.8511 C894.8158,255.0035 896.7799,255.1795 898.9669,255.3792 C907.7151,256.1781 920.0301,257.3562 934.881,258.9197 C964.5829,262.0468 1004.4285,266.7153 1046.1705,272.9745 C1129.6545,285.4927 1220.724,304.3732 1253.4,330.0082 C1272.663,345.1192 1284.5925,369.8467 1291.7408,391.0635 C1293.5278,396.3676 1295.016,401.4524 1296.2453,406.1126 C1296.3222,406.4039 1296.398,406.6935 1296.4728,406.9814 C1296.5102,407.1254 1295.6482,403.783 1295.6851,403.9261 " fill="none" id="LaravelAPI-to-Passerelle de Paiement" style="stroke:#FFA500;stroke-width:0.6;"/><polygon fill="#FFA500" points="1296.5843,407.412,1297.5595,401.5837,1295.835,404.507,1292.9116,402.7826,1296.5843,407.412" style="stroke:#FFA500;stroke-width:0.6;"/><text fill="#000000" font-family="sans-serif" font-size="7.8" lengthAdjust="spacing" textLength="91.2" x="1244.4" y="322.8252">Traitement des Paiements</text></g><!--link LaravelAPI to Service d'Email--><g id="link_LaravelAPI_Service d'Email"><path d="M889.3284,254.132 C889.731,254.1347 890.1573,254.1378 890.6068,254.1412 C894.2034,254.1683 899.2907,254.2175 905.6798,254.3064 C918.458,254.4843 936.4438,254.8211 958.1264,255.4587 C1001.4917,256.7338 1059.6446,259.2116 1120.5008,264.0255 C1242.213,273.6532 1374.738,292.6252 1421.4,330.0082 C1440.291,345.1432 1451.487,369.8707 1457.9865,391.0815 C1458.7989,393.7328 1459.538,396.3292 1460.2095,398.845 C1460.5453,400.103 1460.8642,401.3407 1461.1669,402.5552 C1461.2426,402.8588 1461.3173,403.1609 1461.3909,403.4616 C1461.4278,403.6119 1460.6144,400.2636 1460.6507,400.4132 " fill="none" id="LaravelAPI-to-Service d'Email" style="stroke:#A52A2A;stroke-width:0.6;"/><polygon fill="#A52A2A" points="1461.5007,403.9114,1462.5578,398.0974,1460.7924,400.9962,1457.8936,399.2308,1461.5007,403.9114" style="stroke:#A52A2A;stroke-width:0.6;"/><text fill="#000000" font-family="sans-serif" font-size="7.8" lengthAdjust="spacing" textLength="109.8" x="1408.8" y="322.8252">Envoi de Notifications par Email</text></g><!--SRC=[hLJDRjD04BxxAKRXa5C4ueYgIcb8IwKM6Jk0KDN3n3j9Lzdicjrrse3w0Bm9SEODycBCsgvZ9oaLY5iyyytFzysNxKEC5fURxzwI0q7W_5eHvAQme3YIcMLk76hFoG9crcW_82q0LvGnIicC0ESMjP0KkONKUMXNbMdI7hv602UOBURM55gCZ3BswEWqz1bhSNmC5t9-uyyiaGv0OmNPVT1hj8i7p2b7zn4dYcTmjaodyWl1onVHVHJr_uhVb9ly1teXq68tCXRLBhij9f1BI7IfRTF_ocoAheeBe_Nc1_z-WfH0Zw7e4AUAIBfOdwY2kbGWCMjKTRnXyCzhEx8hNj01tNco-kcrdxZ5k6o3AgtwDeupIf1EZFX4IfdRtUliLpK5tJlj0nyZddCOvmIzqhK3Fcwlt7Yx_uU2XdaE7Ly71C3LkUOnCsG5tdkff4DFXRskSeafMbzdvBmq6aH_yysZ3z7xplYWqA7f5wpcYjGmFeUs_Ue5HhoHtVnIF8XR3mj_mpLo9ZCCqwuFW0XYQqGXlJkS7Pdbacz93-bBAOIYMxJKu8liXWAq5hVXqZZrSfs-koXNl9hWL0MmQojKzcwbsXkrmfrLMl6XO8-w46uBc3uuT5mxT5V9NenSPTbOvVOnIbfol0U7x5Bh6sHFlPLvpRBJhqQpyECbIlN7HY4G54ul9t4ZM9yfQartV2h-OtcGmKwOXTEvgBRTuEhPF3onruFZjXTUGI-XpyNcfsV6RoQJ699nEfaLgXUrK5myvHSWr5OtwPI5G48edd-qqjDk8R-EUbwMFYeSTvjOvDhmMLsophczDQovBJdigyPTndfbPEZzrcpTwu1V4gX0qMy0]--></g></svg>