<?xml version="1.0" encoding="us-ascii" standalone="no"?><svg xmlns="http://www.w3.org/2000/svg" xmlns:xlink="http://www.w3.org/1999/xlink" contentStyleType="text/css" height="1684px" preserveAspectRatio="none" style="width:2750px;height:1684px;background:#FFFFFF;" version="1.1" viewBox="0 0 2750 1684" width="2750px" zoomAndPan="magnify"><defs/><g><!--cluster Front-End--><g id="cluster_Front-End"><path d="M8.5,9.917 L173.5,9.917 A3.75,3.75 0 0 1 176,12.417 L183,55.0186 L2304,55.0186 A2.5,2.5 0 0 1 2306.5,57.5186 L2306.5,292.417 A2.5,2.5 0 0 1 2304,294.917 L8.5,294.917 A2.5,2.5 0 0 1 6,292.417 L6,12.417 A2.5,2.5 0 0 1 8.5,9.917 " fill="none" style="stroke:#000000;stroke-width:1.5;"/><line style="stroke:#000000;stroke-width:1.5;" x1="6" x2="183" y1="55.0186" y2="55.0186"/><text fill="#000000" font-family="Arial" font-size="35" font-weight="bold" lengthAdjust="spacing" textLength="164" x="10" y="43.6016">Front-End</text></g><!--cluster VueApp--><g id="cluster_VueApp"><rect fill="none" height="179" rx="2.5" ry="2.5" style="stroke:#181818;stroke-width:1.0;" width="2236.5" x="38" y="83.917"/><rect fill="none" height="10" style="stroke:#181818;stroke-width:1.0;" width="15" x="2254.5" y="88.917"/><rect fill="none" height="2" style="stroke:#181818;stroke-width:1.0;" width="4" x="2252.5" y="90.917"/><rect fill="none" height="2" style="stroke:#181818;stroke-width:1.0;" width="4" x="2252.5" y="94.917"/><text fill="#000000" font-family="Arial" font-size="35" font-weight="bold" lengthAdjust="spacing" textLength="127" x="1092.75" y="128.6016">VueApp</text></g><!--cluster Back-End--><g id="cluster_Back-End"><path d="M828.5,318.917 L986.5,318.917 A3.75,3.75 0 0 1 989,321.417 L996,364.0186 L2326,364.0186 A2.5,2.5 0 0 1 2328.5,366.5186 L2328.5,809.417 A2.5,2.5 0 0 1 2326,811.917 L828.5,811.917 A2.5,2.5 0 0 1 826,809.417 L826,321.417 A2.5,2.5 0 0 1 828.5,318.917 " fill="none" style="stroke:#000000;stroke-width:1.5;"/><line style="stroke:#000000;stroke-width:1.5;" x1="826" x2="996" y1="364.0186" y2="364.0186"/><text fill="#000000" font-family="Arial" font-size="35" font-weight="bold" lengthAdjust="spacing" textLength="157" x="830" y="352.6016">Back-End</text></g><!--cluster LaravelAPI--><g id="cluster_LaravelAPI"><rect fill="none" height="387" rx="2.5" ry="2.5" style="stroke:#181818;stroke-width:1.0;" width="1438.5" x="858" y="392.917"/><rect fill="none" height="10" style="stroke:#181818;stroke-width:1.0;" width="15" x="2276.5" y="397.917"/><rect fill="none" height="2" style="stroke:#181818;stroke-width:1.0;" width="4" x="2274.5" y="399.917"/><rect fill="none" height="2" style="stroke:#181818;stroke-width:1.0;" width="4" x="2274.5" y="403.917"/><text fill="#000000" font-family="Arial" font-size="35" font-weight="bold" lengthAdjust="spacing" textLength="175" x="1489.75" y="437.6016">LaravelAPI</text></g><!--cluster MySQL--><g id="cluster_MySQL"><path d="M1957.5,853.917 C1957.5,843.917 2345.5,843.917 2345.5,843.917 C2345.5,843.917 2733.5,843.917 2733.5,853.917 L2733.5,1131.917 C2733.5,1141.917 2345.5,1141.917 2345.5,1141.917 C2345.5,1141.917 1957.5,1141.917 1957.5,1131.917 L1957.5,853.917 " fill="none" style="stroke:#181818;stroke-width:1.0;"/><path d="M1957.5,853.917 C1957.5,863.917 2345.5,863.917 2345.5,863.917 C2345.5,863.917 2733.5,863.917 2733.5,853.917 " fill="none" style="stroke:#181818;stroke-width:1.0;"/><text fill="#000000" font-family="Arial" font-size="35" font-weight="bold" lengthAdjust="spacing" textLength="120" x="2285.5" y="897.6016">MySQL</text></g><!--cluster Services Externes--><g id="cluster_Services Externes"><path d="M1896,1173.917 L2193,1173.917 A3.75,3.75 0 0 1 2195.5,1176.417 L2202.5,1219.0186 L2352,1219.0186 A2.5,2.5 0 0 1 2354.5,1221.5186 L2354.5,1675.417 A2.5,2.5 0 0 1 2352,1677.917 L1896,1677.917 A2.5,2.5 0 0 1 1893.5,1675.417 L1893.5,1176.417 A2.5,2.5 0 0 1 1896,1173.917 " fill="none" style="stroke:#000000;stroke-width:1.5;"/><line style="stroke:#000000;stroke-width:1.5;" x1="1893.5" x2="2202.5" y1="1219.0186" y2="1219.0186"/><text fill="#000000" font-family="Arial" font-size="35" font-weight="bold" lengthAdjust="spacing" textLength="296" x="1897.5" y="1207.6016">Services Externes</text></g><!--cluster Passerelle de Paiement--><g id="cluster_Passerelle de Paiement"><rect fill="none" height="179" rx="2.5" ry="2.5" style="stroke:#181818;stroke-width:1.0;" width="397" x="1925.5" y="1247.917"/><rect fill="none" height="10" style="stroke:#181818;stroke-width:1.0;" width="15" x="2302.5" y="1252.917"/><rect fill="none" height="2" style="stroke:#181818;stroke-width:1.0;" width="4" x="2300.5" y="1254.917"/><rect fill="none" height="2" style="stroke:#181818;stroke-width:1.0;" width="4" x="2300.5" y="1258.917"/><text fill="#000000" font-family="Arial" font-size="35" font-weight="bold" lengthAdjust="spacing" textLength="381" x="1933.5" y="1292.6016">Passerelle de Paiement</text></g><!--cluster Service de Mail--><g id="cluster_Service de Mail"><rect fill="none" height="179" rx="2.5" ry="2.5" style="stroke:#181818;stroke-width:1.0;" width="313" x="1967" y="1466.917"/><rect fill="none" height="10" style="stroke:#181818;stroke-width:1.0;" width="15" x="2260" y="1471.917"/><rect fill="none" height="2" style="stroke:#181818;stroke-width:1.0;" width="4" x="2258" y="1473.917"/><rect fill="none" height="2" style="stroke:#181818;stroke-width:1.0;" width="4" x="2258" y="1477.917"/><text fill="#000000" font-family="Arial" font-size="35" font-weight="bold" lengthAdjust="spacing" textLength="248" x="1999.5" y="1511.6016">Service de Mail</text></g><!--entity Interface Utilisateur--><g id="elem_Interface Utilisateur"><rect fill="#F1F1F1" height="69.1016" rx="2.5" ry="2.5" style="stroke:#181818;stroke-width:0.5;" width="333" x="62" y="150.417"/><rect fill="#F1F1F1" height="10" style="stroke:#181818;stroke-width:0.5;" width="15" x="375" y="155.417"/><rect fill="#F1F1F1" height="2" style="stroke:#181818;stroke-width:0.5;" width="4" x="373" y="157.417"/><rect fill="#F1F1F1" height="2" style="stroke:#181818;stroke-width:0.5;" width="4" x="373" y="161.417"/><text fill="#000000" font-family="Arial" font-size="35" lengthAdjust="spacing" textLength="293" x="77" y="202.1016">Interface Utilisateur</text></g><!--entity Routeur--><g id="elem_Routeur"><rect fill="#F1F1F1" height="69.1016" rx="2.5" ry="2.5" style="stroke:#181818;stroke-width:0.5;" width="161" x="1021.5" y="156.417"/><rect fill="#F1F1F1" height="10" style="stroke:#181818;stroke-width:0.5;" width="15" x="1162.5" y="161.417"/><rect fill="#F1F1F1" height="2" style="stroke:#181818;stroke-width:0.5;" width="4" x="1160.5" y="163.417"/><rect fill="#F1F1F1" height="2" style="stroke:#181818;stroke-width:0.5;" width="4" x="1160.5" y="167.417"/><text fill="#000000" font-family="Arial" font-size="35" lengthAdjust="spacing" textLength="121" x="1036.5" y="208.1016">Routeur</text></g><!--entity Gestion d'?tat--><g id="elem_Gestion d'&#201;tat"><rect fill="#F1F1F1" height="69.1016" rx="2.5" ry="2.5" style="stroke:#181818;stroke-width:0.5;" width="254" x="1996.5" y="156.417"/><rect fill="#F1F1F1" height="10" style="stroke:#181818;stroke-width:0.5;" width="15" x="2230.5" y="161.417"/><rect fill="#F1F1F1" height="2" style="stroke:#181818;stroke-width:0.5;" width="4" x="2228.5" y="163.417"/><rect fill="#F1F1F1" height="2" style="stroke:#181818;stroke-width:0.5;" width="4" x="2228.5" y="167.417"/><text fill="#000000" font-family="Arial" font-size="35" lengthAdjust="spacing" textLength="214" x="2011.5" y="208.1016">Gestion d'&#201;tat</text></g><!--entity Contr?leur Authentification--><g id="elem_Contr&#244;leur Authentification"><rect fill="#F1F1F1" height="69.1016" rx="2.5" ry="2.5" style="stroke:#181818;stroke-width:0.5;" width="440" x="882" y="459.417"/><rect fill="#F1F1F1" height="10" style="stroke:#181818;stroke-width:0.5;" width="15" x="1302" y="464.417"/><rect fill="#F1F1F1" height="2" style="stroke:#181818;stroke-width:0.5;" width="4" x="1300" y="466.417"/><rect fill="#F1F1F1" height="2" style="stroke:#181818;stroke-width:0.5;" width="4" x="1300" y="470.417"/><text fill="#000000" font-family="Arial" font-size="35" lengthAdjust="spacing" textLength="400" x="897" y="511.1016">Contr&#244;leur Authentification</text></g><!--entity Contr?leur Produit--><g id="elem_Contr&#244;leur Produit"><rect fill="#F1F1F1" height="69.1016" rx="2.5" ry="2.5" style="stroke:#181818;stroke-width:0.5;" width="316" x="944" y="563.417"/><rect fill="#F1F1F1" height="10" style="stroke:#181818;stroke-width:0.5;" width="15" x="1240" y="568.417"/><rect fill="#F1F1F1" height="2" style="stroke:#181818;stroke-width:0.5;" width="4" x="1238" y="570.417"/><rect fill="#F1F1F1" height="2" style="stroke:#181818;stroke-width:0.5;" width="4" x="1238" y="574.417"/><text fill="#000000" font-family="Arial" font-size="35" lengthAdjust="spacing" textLength="276" x="959" y="615.1016">Contr&#244;leur Produit</text></g><!--entity Contr?leur Commande--><g id="elem_Contr&#244;leur Commande"><rect fill="#F1F1F1" height="69.1016" rx="2.5" ry="2.5" style="stroke:#181818;stroke-width:0.5;" width="383" x="910.5" y="667.417"/><rect fill="#F1F1F1" height="10" style="stroke:#181818;stroke-width:0.5;" width="15" x="1273.5" y="672.417"/><rect fill="#F1F1F1" height="2" style="stroke:#181818;stroke-width:0.5;" width="4" x="1271.5" y="674.417"/><rect fill="#F1F1F1" height="2" style="stroke:#181818;stroke-width:0.5;" width="4" x="1271.5" y="678.417"/><text fill="#000000" font-family="Arial" font-size="35" lengthAdjust="spacing" textLength="343" x="925.5" y="719.1016">Contr&#244;leur Commande</text></g><!--entity Middleware--><g id="elem_Middleware"><rect fill="#F1F1F1" height="69.1016" rx="2.5" ry="2.5" style="stroke:#181818;stroke-width:0.5;" width="212" x="2017.5" y="667.417"/><rect fill="#F1F1F1" height="10" style="stroke:#181818;stroke-width:0.5;" width="15" x="2209.5" y="672.417"/><rect fill="#F1F1F1" height="2" style="stroke:#181818;stroke-width:0.5;" width="4" x="2207.5" y="674.417"/><rect fill="#F1F1F1" height="2" style="stroke:#181818;stroke-width:0.5;" width="4" x="2207.5" y="678.417"/><text fill="#000000" font-family="Arial" font-size="35" lengthAdjust="spacing" textLength="172" x="2032.5" y="719.1016">Middleware</text></g><!--entity Couche Services--><g id="elem_Couche Services"><rect fill="#F1F1F1" height="69.1016" rx="2.5" ry="2.5" style="stroke:#181818;stroke-width:0.5;" width="298" x="1974.5" y="563.417"/><rect fill="#F1F1F1" height="10" style="stroke:#181818;stroke-width:0.5;" width="15" x="2252.5" y="568.417"/><rect fill="#F1F1F1" height="2" style="stroke:#181818;stroke-width:0.5;" width="4" x="2250.5" y="570.417"/><rect fill="#F1F1F1" height="2" style="stroke:#181818;stroke-width:0.5;" width="4" x="2250.5" y="574.417"/><text fill="#000000" font-family="Arial" font-size="35" lengthAdjust="spacing" textLength="258" x="1989.5" y="615.1016">Couche Services</text></g><!--entity Table Utilisateur--><g id="elem_Table Utilisateur"><rect fill="#F1F1F1" height="69.1016" rx="2.5" ry="2.5" style="stroke:#181818;stroke-width:0.5;" width="284" x="1981.5" y="1029.417"/><rect fill="#F1F1F1" height="10" style="stroke:#181818;stroke-width:0.5;" width="15" x="2245.5" y="1034.417"/><rect fill="#F1F1F1" height="2" style="stroke:#181818;stroke-width:0.5;" width="4" x="2243.5" y="1036.417"/><rect fill="#F1F1F1" height="2" style="stroke:#181818;stroke-width:0.5;" width="4" x="2243.5" y="1040.417"/><text fill="#000000" font-family="Arial" font-size="35" lengthAdjust="spacing" textLength="244" x="1996.5" y="1081.1016">Table Utilisateur</text></g><!--entity Table Produit--><g id="elem_Table Produit"><rect fill="#F1F1F1" height="69.1016" rx="2.5" ry="2.5" style="stroke:#181818;stroke-width:0.5;" width="241" x="2003" y="925.417"/><rect fill="#F1F1F1" height="10" style="stroke:#181818;stroke-width:0.5;" width="15" x="2224" y="930.417"/><rect fill="#F1F1F1" height="2" style="stroke:#181818;stroke-width:0.5;" width="4" x="2222" y="932.417"/><rect fill="#F1F1F1" height="2" style="stroke:#181818;stroke-width:0.5;" width="4" x="2222" y="936.417"/><text fill="#000000" font-family="Arial" font-size="35" lengthAdjust="spacing" textLength="201" x="2018" y="977.1016">Table Produit</text></g><!--entity Table Commande--><g id="elem_Table Commande"><rect fill="#F1F1F1" height="69.1016" rx="2.5" ry="2.5" style="stroke:#181818;stroke-width:0.5;" width="308" x="2401.5" y="1029.417"/><rect fill="#F1F1F1" height="10" style="stroke:#181818;stroke-width:0.5;" width="15" x="2689.5" y="1034.417"/><rect fill="#F1F1F1" height="2" style="stroke:#181818;stroke-width:0.5;" width="4" x="2687.5" y="1036.417"/><rect fill="#F1F1F1" height="2" style="stroke:#181818;stroke-width:0.5;" width="4" x="2687.5" y="1040.417"/><text fill="#000000" font-family="Arial" font-size="35" lengthAdjust="spacing" textLength="268" x="2416.5" y="1081.1016">Table Commande</text></g><!--entity Table Adresse--><g id="elem_Table Adresse"><rect fill="#F1F1F1" height="69.1016" rx="2.5" ry="2.5" style="stroke:#181818;stroke-width:0.5;" width="259" x="2426" y="925.417"/><rect fill="#F1F1F1" height="10" style="stroke:#181818;stroke-width:0.5;" width="15" x="2665" y="930.417"/><rect fill="#F1F1F1" height="2" style="stroke:#181818;stroke-width:0.5;" width="4" x="2663" y="932.417"/><rect fill="#F1F1F1" height="2" style="stroke:#181818;stroke-width:0.5;" width="4" x="2663" y="936.417"/><text fill="#000000" font-family="Arial" font-size="35" lengthAdjust="spacing" textLength="219" x="2441" y="977.1016">Table Adresse</text></g><!--entity API Stripe--><g id="elem_API Stripe"><rect fill="#F1F1F1" height="69.1016" rx="2.5" ry="2.5" style="stroke:#181818;stroke-width:0.5;" width="194" x="2026.5" y="1314.417"/><rect fill="#F1F1F1" height="10" style="stroke:#181818;stroke-width:0.5;" width="15" x="2200.5" y="1319.417"/><rect fill="#F1F1F1" height="2" style="stroke:#181818;stroke-width:0.5;" width="4" x="2198.5" y="1321.417"/><rect fill="#F1F1F1" height="2" style="stroke:#181818;stroke-width:0.5;" width="4" x="2198.5" y="1325.417"/><text fill="#000000" font-family="Arial" font-size="35" lengthAdjust="spacing" textLength="154" x="2041.5" y="1366.1016">API Stripe</text></g><!--entity Serveur SMTP--><g id="elem_Serveur SMTP"><rect fill="#F1F1F1" height="69.1016" rx="2.5" ry="2.5" style="stroke:#181818;stroke-width:0.5;" width="265" x="1991" y="1533.417"/><rect fill="#F1F1F1" height="10" style="stroke:#181818;stroke-width:0.5;" width="15" x="2236" y="1538.417"/><rect fill="#F1F1F1" height="2" style="stroke:#181818;stroke-width:0.5;" width="4" x="2234" y="1540.417"/><rect fill="#F1F1F1" height="2" style="stroke:#181818;stroke-width:0.5;" width="4" x="2234" y="1544.417"/><text fill="#000000" font-family="Arial" font-size="35" lengthAdjust="spacing" textLength="225" x="2006" y="1585.1016">Serveur SMTP</text></g><!--link VueApp to LaravelAPI--><g id="link_VueApp_LaravelAPI"><path d="M235.8089,263.3051 C235.9893,263.5417 236.1735,263.7831 236.3614,264.0291 C236.7373,264.5212 237.1282,265.0321 237.534,265.5614 C239.1572,267.6789 241.0192,270.0924 243.1131,272.7837 C251.4889,283.5489 263.5768,298.7589 278.9492,317.2495 C309.6941,354.2307 353.5769,404.3345 407.1763,458.247 C514.375,566.072 660.44,689.132 818,752.917 C875.51,776.202 944.965,781.1695 1000.675,780.2095 C1004.1569,780.1495 1007.5851,780.0663 1010.9533,779.9631 C1011.3743,779.9501 1005.7975,780.1306 1006.2167,780.117 " fill="none" id="VueApp-to-LaravelAPI" style="stroke:#181818;stroke-width:1.0;"/><polygon fill="#181818" points="1012.2135,779.9234,1003.0891,776.2159,1007.2161,780.0847,1003.3473,784.2117,1012.2135,779.9234" style="stroke:#181818;stroke-width:1.0;"/><text fill="#000000" font-family="Arial" font-size="35" lengthAdjust="spacing" textLength="383" x="426" y="474.6016">Requ&#234;tes HTTP RESTful</text></g><!--link LaravelAPI to MySQL--><g id="link_LaravelAPI_MySQL"><path d="M1117.0663,780.2514 C1117.7216,780.6355 1118.3987,781.0319 1119.0975,781.4406 C1120.4952,782.2578 1121.9795,783.1239 1123.5488,784.0371 C1136.1032,791.3432 1154.0963,801.6725 1176.6502,814.2467 C1221.7578,839.3951 1285.1081,873.5232 1359.6763,910.4045 C1508.8125,984.167 1702.82,1068.942 1885.5,1114.917 C1898.1087,1118.0907 1911.2028,1120.7711 1924.4719,1123.0313 C1931.1064,1124.1614 1937.7846,1125.1865 1944.4679,1126.1158 C1947.8095,1126.5805 1951.1523,1127.0211 1954.4916,1127.439 C1955.3264,1127.5435 1950.205,1126.9209 1951.0393,1127.0226 " fill="none" id="LaravelAPI-to-MySQL" style="stroke:#181818;stroke-width:1.0;"/><polygon fill="#181818" points="1956.9952,1127.7481,1948.545,1122.6892,1952.0319,1127.1435,1947.5776,1130.6304,1956.9952,1127.7481" style="stroke:#181818;stroke-width:1.0;"/><text fill="#000000" font-family="Arial" font-size="35" lengthAdjust="spacing" textLength="524" x="1353" y="899.6016">Requ&#234;tes SQL de Lecture/&#201;criture</text></g><!--link LaravelAPI to Passerelle de Paiement--><g id="link_LaravelAPI_Passerelle de Paiement"><path d="M1105.877,780.0355 C1105.9477,780.2302 1106.0197,780.4282 1106.093,780.6294 C1106.2396,781.0319 1106.3914,781.4475 1106.5483,781.876 C1106.8622,782.733 1107.1968,783.6415 1107.5521,784.6002 C1110.3941,792.2693 1114.5583,803.1446 1120.0166,816.4711 C1130.9331,843.1239 1147.0263,879.5807 1168.0725,919.7995 C1210.165,1000.237 1272.07,1095.722 1352,1157.917 C1546.67,1309.387 1722.8,1143.207 1878,1334.917 C1896.3,1357.517 1864.58,1379.717 1885.5,1399.917 C1922.91,1436.047 1980.9075,1441.2145 2030.1638,1437.1457 C2042.4778,1436.1286 2054.2455,1434.5341 2065.0087,1432.7019 C2070.3903,1431.7857 2075.5207,1430.8102 2080.3427,1429.8176 C2082.7537,1429.3213 2085.0876,1428.8207 2087.3372,1428.3212 C2088.462,1428.0715 2089.5657,1427.822 2090.6475,1427.5734 C2091.1884,1427.4492 2091.7238,1427.3251 2092.2536,1427.2014 C2092.5185,1427.1395 2086.9417,1428.4527 2087.2038,1428.391 " fill="none" id="LaravelAPI-to-Passerelle de Paiement" style="stroke:#181818;stroke-width:1.0;"/><polygon fill="#181818" points="2093.0441,1427.016,2083.367,1425.1849,2088.1771,1428.1618,2085.2002,1432.972,2093.0441,1427.016" style="stroke:#181818;stroke-width:1.0;"/><text fill="#000000" font-family="Arial" font-size="35" lengthAdjust="spacing" textLength="397" x="1416.5" y="1149.6016">Traitement des Paiements</text></g><!--link LaravelAPI to Service de Mail--><g id="link_LaravelAPI_Service de Mail"><path d="M1104.0415,780.3142 C1104.1718,781.3094 1104.3152,782.3889 1104.4721,783.5506 C1104.7858,785.8739 1105.1533,788.5256 1105.5783,791.4883 C1107.2779,803.3388 1109.8949,820.1627 1113.6505,840.8303 C1121.1616,882.1654 1133.2269,938.8751 1151.6163,1001.9207 C1188.395,1128.012 1250.47,1279.447 1352,1383.917 C1532.58,1569.717 1634.3,1555.457 1885.5,1618.917 C1910.7125,1625.287 1937.8688,1629.6726 1964.4852,1632.6646 C1965.3169,1632.7581 1960.1837,1632.1983 1961.0143,1632.2891 " fill="none" id="LaravelAPI-to-Service de Mail" style="stroke:#181818;stroke-width:1.0;"/><polygon fill="#181818" points="1966.9788,1632.9411,1958.4667,1627.9868,1962.0084,1632.3978,1957.5974,1635.9394,1966.9788,1632.9411" style="stroke:#181818;stroke-width:1.0;"/><text fill="#000000" font-family="Arial" font-size="35" lengthAdjust="spacing" textLength="479" x="1375.5" y="1375.6016">Envoi de Notifications par Email</text></g><!--link Interface Utilisateur to Routeur--><g id="link_Interface Utilisateur_Routeur"><path d="M395.22,186.057 C582.6,187.347 873.9601,189.3558 1015.3101,190.3258 " fill="none" id="Interface Utilisateur-to-Routeur" style="stroke:#181818;stroke-width:1.0;stroke-dasharray:7.0,7.0;"/><polygon fill="#181818" points="1021.31,190.367,1012.3377,186.3053,1016.3101,190.3327,1012.2828,194.3051,1021.31,190.367" style="stroke:#181818;stroke-width:1.0;"/><text fill="#000000" font-family="Arial" font-size="35" lengthAdjust="spacing" textLength="93" x="571" y="178.6016">&#171;use&#187;</text></g><!--link Routeur to Gestion d'?tat--><g id="link_Routeur_Gestion d'&#201;tat"><path d="M1182.57,190.917 C1358.9,190.917 1777.66,190.917 1990.5,190.917 " fill="none" id="Routeur-to-Gestion d'&#201;tat" style="stroke:#181818;stroke-width:1.0;stroke-dasharray:7.0,7.0;"/><polygon fill="#181818" points="1996.5,190.917,1987.5,186.917,1991.5,190.917,1987.5,194.917,1996.5,190.917" style="stroke:#181818;stroke-width:1.0;"/><text fill="#000000" font-family="Arial" font-size="35" lengthAdjust="spacing" textLength="93" x="1568.5" y="182.6016">&#171;use&#187;</text></g><!--link Contr?leur Produit to Couche Services--><g id="link_Contr&#244;leur Produit_Couche Services"><path d="M1260.06,597.917 C1454.72,597.917 1777.95,597.917 1968.38,597.917 " fill="none" id="Contr&#244;leur Produit-to-Couche Services" style="stroke:#181818;stroke-width:1.0;stroke-dasharray:7.0,7.0;"/><polygon fill="#181818" points="1974.38,597.917,1965.38,593.917,1969.38,597.917,1965.38,601.917,1974.38,597.917" style="stroke:#181818;stroke-width:1.0;"/><text fill="#000000" font-family="Arial" font-size="35" lengthAdjust="spacing" textLength="93" x="1568.5" y="589.6016">&#171;use&#187;</text></g><!--link Contr?leur Commande to Middleware--><g id="link_Contr&#244;leur Commande_Middleware"><path d="M1293.56,701.917 C1507.38,701.917 1840.57,701.917 2011.17,701.917 " fill="none" id="Contr&#244;leur Commande-to-Middleware" style="stroke:#181818;stroke-width:1.0;stroke-dasharray:7.0,7.0;"/><polygon fill="#181818" points="2017.17,701.917,2008.17,697.917,2012.17,701.917,2008.17,705.917,2017.17,701.917" style="stroke:#181818;stroke-width:1.0;"/><text fill="#000000" font-family="Arial" font-size="35" lengthAdjust="spacing" textLength="93" x="1568.5" y="693.6016">&#171;use&#187;</text></g><!--SRC=[XLFDRXen4BxlKrXxuKHwg7Af8YGQRTf846tPRIzH3iDw02jUU-iVIblb0V8cLSzz0rwiOrZ0mABi1JFpVJEVFy_qM0u6wlKVPz2okTHJy2lMQ6-OLqW7AIhwaPwI1XJ7n3uBrGGEupW3BzsTLku1QcH38q1svmln2zdxwoJALhfkj4BbsE-4qHV3Nc8W1mTJiFWMhe7g6UONO19dZZdDZ9Wl7EF2OEM4LacoOwLtXXZzJF6qhN0G-CtZi6dQSFWUxvL3CmEovgiJKbXmwCtJ8J_H_YJo2Mreo7Xl_Uh0RJClGTfUmKSwT0iOqGMNA8VvVIpYbWIRzJz9ZTZGkmKXnKnK4FeyTSDoexaNxaBsLjTrUECeFHQSI_m11eyulbeWAz0iQJfiT9VzMur_5bz6hTZ74gQomwasVgIfZHqhQOD3JZDgAHQRjXF1iXKzYK9xxbwQ0z4CIgh1gHy8h2cUnbu6QmjdH8ExsvpKQFk40cCGyeWSSi6_ObpcaHazkePIkABdi0mT4s5eO3DtDcbdgjyVnA_xWQKJ_ExNVntTw7DPvcoI5UNCopI9K86qDVW87m8aRqIZxGs-MxzMHeJJ6VUY8LIkD23SvY-bx3vdpukSEKBiJ2sr2947VPX5IwjfM5O7K70bMs7TI2fEE4466nVSyHQJ2tl5hgu6XvsYFZStX1uCaaDiWpZTiGYPTAx1bdOwpd63plNOqgBLY1Z_0G00]--></g></svg>