<?xml version="1.0" encoding="us-ascii" standalone="no"?><svg xmlns="http://www.w3.org/2000/svg" xmlns:xlink="http://www.w3.org/1999/xlink" contentStyleType="text/css" height="1364px" preserveAspectRatio="none" style="width:3602px;height:1364px;background:#FFFFFF;" version="1.1" viewBox="0 0 3602 1364" width="3602px" zoomAndPan="magnify"><defs/><g><!--class Utilisateur--><g id="elem_Utilisateur"><rect codeLine="21" fill="#ADD8E6" height="417.0156" id="Utilisateur" rx="2.5" ry="2.5" style="stroke:#000000;stroke-width:0.5;" width="362" x="1367" y="479.417"/><ellipse cx="1466.75" cy="503.9678" fill="#ADD1B2" rx="17" ry="17" style="stroke:#181818;stroke-width:1.0;"/><path d="M1471.25,495.3896 Q1471.5781,494.9521 1471.9531,494.7334 Q1472.3438,494.499 1472.7813,494.499 Q1473.5469,494.499 1474.0313,495.0303 Q1474.5313,495.5615 1474.5313,496.8271 L1474.5313,499.7959 Q1474.5313,501.0615 1474.0313,501.6084 Q1473.5469,502.1396 1472.7813,502.1396 Q1472.0781,502.1396 1471.6563,501.749 Q1471.2344,501.3584 1471.0313,500.2803 Q1470.9063,499.5615 1470.5469,499.1709 Q1469.8438,498.4053 1468.5781,497.9521 Q1467.3281,497.4834 1466.0625,497.4834 Q1464.5,497.4834 1463.1719,498.1709 Q1461.8594,498.8428 1460.8438,500.3896 Q1459.8438,501.9209 1459.8438,504.0459 L1459.8438,506.3115 Q1459.8438,508.8428 1461.6719,510.5459 Q1463.5156,512.2334 1466.7813,512.2334 Q1468.7344,512.2334 1470.0781,511.7021 Q1470.875,511.3896 1471.7656,510.4834 Q1472.3125,509.9365 1472.6094,509.7803 Q1472.9219,509.6084 1473.3125,509.6084 Q1474.0156,509.6084 1474.5469,510.1396 Q1475.0781,510.6709 1475.0781,511.3896 Q1475.0781,512.1084 1474.3594,512.9209 Q1473.3125,514.124 1471.6719,514.8115 Q1469.4688,515.7334 1466.7969,515.7334 Q1463.6875,515.7334 1461.2031,514.4521 Q1459.1875,513.4209 1457.7656,511.2178 Q1456.3438,508.999 1456.3438,506.3896 L1456.3438,503.999 Q1456.3438,501.2646 1457.6094,498.9053 Q1458.8906,496.5459 1461.1406,495.2646 Q1463.4063,493.9678 1465.9375,493.9678 Q1467.4531,493.9678 1468.7656,494.3271 Q1470.0938,494.6709 1471.25,495.3896 Z " fill="#000000"/><text fill="#000000" font-family="Arial" font-size="35" lengthAdjust="spacing" textLength="151" x="1496.25" y="516.1016">Utilisateur</text><line style="stroke:#000000;stroke-width:0.5;" x1="1368" x2="1728" y1="528.5186" y2="528.5186"/><ellipse cx="1378" cy="553.5693" fill="none" rx="3" ry="3" style="stroke:#038048;stroke-width:1.0;"/><text fill="#000000" font-family="Arial" font-size="35" lengthAdjust="spacing" textLength="92" x="1393" y="564.2031">id : int</text><ellipse cx="1378" cy="592.6709" fill="none" rx="3" ry="3" style="stroke:#038048;stroke-width:1.0;"/><text fill="#000000" font-family="Arial" font-size="35" lengthAdjust="spacing" textLength="171" x="1393" y="603.3047">nom: string</text><ellipse cx="1378" cy="631.7725" fill="none" rx="3" ry="3" style="stroke:#038048;stroke-width:1.0;"/><text fill="#000000" font-family="Arial" font-size="35" lengthAdjust="spacing" textLength="184" x="1393" y="642.4063">email: string</text><ellipse cx="1378" cy="670.874" fill="none" rx="3" ry="3" style="stroke:#038048;stroke-width:1.0;"/><text fill="#000000" font-family="Arial" font-size="35" lengthAdjust="spacing" textLength="329" x="1393" y="681.5078">email_verifie_a: string</text><ellipse cx="1378" cy="709.9756" fill="none" rx="3" ry="3" style="stroke:#038048;stroke-width:1.0;"/><text fill="#000000" font-family="Arial" font-size="35" lengthAdjust="spacing" textLength="328" x="1393" y="720.6094">mot_de_passe: string</text><ellipse cx="1378" cy="749.0771" fill="none" rx="3" ry="3" style="stroke:#038048;stroke-width:1.0;"/><text fill="#000000" font-family="Arial" font-size="35" lengthAdjust="spacing" textLength="160" x="1393" y="759.7109">role: string</text><ellipse cx="1378" cy="788.1787" fill="none" rx="3" ry="3" style="stroke:#038048;stroke-width:1.0;"/><text fill="#000000" font-family="Arial" font-size="35" lengthAdjust="spacing" textLength="294" x="1393" y="798.8125">est_admin: boolean</text><ellipse cx="1378" cy="827.2803" fill="none" rx="3" ry="3" style="stroke:#038048;stroke-width:1.0;"/><text fill="#000000" font-family="Arial" font-size="35" lengthAdjust="spacing" textLength="288" x="1393" y="837.9141">cree_le: timestamp</text><ellipse cx="1378" cy="866.3818" fill="none" rx="3" ry="3" style="stroke:#038048;stroke-width:1.0;"/><text fill="#000000" font-family="Arial" font-size="35" lengthAdjust="spacing" textLength="330" x="1393" y="877.0156">modifie_le: timestamp</text><line style="stroke:#000000;stroke-width:0.5;" x1="1368" x2="1728" y1="888.4326" y2="888.4326"/></g><!--class Client--><g id="elem_Client"><rect codeLine="33" fill="#ADD8E6" height="377.9141" id="Client" rx="2.5" ry="2.5" style="stroke:#000000;stroke-width:0.5;" width="386" x="7" y="547.917"/><ellipse cx="151.25" cy="572.4678" fill="#ADD1B2" rx="17" ry="17" style="stroke:#181818;stroke-width:1.0;"/><path d="M155.75,563.8896 Q156.0781,563.4521 156.4531,563.2334 Q156.8438,562.999 157.2813,562.999 Q158.0469,562.999 158.5313,563.5303 Q159.0313,564.0615 159.0313,565.3271 L159.0313,568.2959 Q159.0313,569.5615 158.5313,570.1084 Q158.0469,570.6396 157.2813,570.6396 Q156.5781,570.6396 156.1563,570.249 Q155.7344,569.8584 155.5313,568.7803 Q155.4063,568.0615 155.0469,567.6709 Q154.3438,566.9053 153.0781,566.4521 Q151.8281,565.9834 150.5625,565.9834 Q149,565.9834 147.6719,566.6709 Q146.3594,567.3428 145.3438,568.8896 Q144.3438,570.4209 144.3438,572.5459 L144.3438,574.8115 Q144.3438,577.3428 146.1719,579.0459 Q148.0156,580.7334 151.2813,580.7334 Q153.2344,580.7334 154.5781,580.2021 Q155.375,579.8896 156.2656,578.9834 Q156.8125,578.4365 157.1094,578.2803 Q157.4219,578.1084 157.8125,578.1084 Q158.5156,578.1084 159.0469,578.6396 Q159.5781,579.1709 159.5781,579.8896 Q159.5781,580.6084 158.8594,581.4209 Q157.8125,582.624 156.1719,583.3115 Q153.9688,584.2334 151.2969,584.2334 Q148.1875,584.2334 145.7031,582.9521 Q143.6875,581.9209 142.2656,579.7178 Q140.8438,577.499 140.8438,574.8896 L140.8438,572.499 Q140.8438,569.7646 142.1094,567.4053 Q143.3906,565.0459 145.6406,563.7646 Q147.9063,562.4678 150.4375,562.4678 Q151.9531,562.4678 153.2656,562.8271 Q154.5938,563.1709 155.75,563.8896 Z " fill="#000000"/><text fill="#000000" font-family="Arial" font-size="35" lengthAdjust="spacing" textLength="86" x="180.75" y="584.6016">Client</text><line style="stroke:#000000;stroke-width:0.5;" x1="8" x2="392" y1="597.0186" y2="597.0186"/><ellipse cx="18" cy="622.0693" fill="none" rx="3" ry="3" style="stroke:#038048;stroke-width:1.0;"/><text fill="#000000" font-family="Arial" font-size="35" lengthAdjust="spacing" textLength="256" x="33" y="632.7031">utilisateur_id : int</text><ellipse cx="18" cy="661.1709" fill="none" rx="3" ry="3" style="stroke:#038048;stroke-width:1.0;"/><text fill="#000000" font-family="Arial" font-size="35" lengthAdjust="spacing" textLength="220" x="33" y="671.8047">prenom: string</text><ellipse cx="18" cy="700.2725" fill="none" rx="3" ry="3" style="stroke:#038048;stroke-width:1.0;"/><text fill="#000000" font-family="Arial" font-size="35" lengthAdjust="spacing" textLength="342" x="33" y="710.9063">nom_de_famille: string</text><ellipse cx="18" cy="739.374" fill="none" rx="3" ry="3" style="stroke:#038048;stroke-width:1.0;"/><text fill="#000000" font-family="Arial" font-size="35" lengthAdjust="spacing" textLength="251" x="33" y="750.0078">telephone: string</text><ellipse cx="18" cy="778.4756" fill="none" rx="3" ry="3" style="stroke:#038048;stroke-width:1.0;"/><text fill="#000000" font-family="Arial" font-size="35" lengthAdjust="spacing" textLength="288" x="33" y="789.1094">cree_le: timestamp</text><ellipse cx="18" cy="817.5771" fill="none" rx="3" ry="3" style="stroke:#038048;stroke-width:1.0;"/><text fill="#000000" font-family="Arial" font-size="35" lengthAdjust="spacing" textLength="330" x="33" y="828.2109">modifie_le: timestamp</text><ellipse cx="18" cy="856.6787" fill="none" rx="3" ry="3" style="stroke:#038048;stroke-width:1.0;"/><text fill="#000000" font-family="Arial" font-size="35" lengthAdjust="spacing" textLength="312" x="33" y="867.3125">cree_par: timestamp</text><ellipse cx="18" cy="895.7803" fill="none" rx="3" ry="3" style="stroke:#038048;stroke-width:1.0;"/><text fill="#000000" font-family="Arial" font-size="35" lengthAdjust="spacing" textLength="354" x="33" y="906.4141">modifie_par: timestamp</text><line style="stroke:#000000;stroke-width:0.5;" x1="8" x2="392" y1="917.8311" y2="917.8311"/></g><!--class Adresse--><g id="elem_Adresse"><rect codeLine="45" fill="#ADD8E6" height="495.2188" id="Adresse" rx="2.5" ry="2.5" style="stroke:#000000;stroke-width:0.5;" width="362" x="781" y="862.417"/><ellipse cx="893.25" cy="886.9678" fill="#ADD1B2" rx="17" ry="17" style="stroke:#181818;stroke-width:1.0;"/><path d="M897.75,878.3896 Q898.0781,877.9521 898.4531,877.7334 Q898.8438,877.499 899.2813,877.499 Q900.0469,877.499 900.5313,878.0303 Q901.0313,878.5615 901.0313,879.8271 L901.0313,882.7959 Q901.0313,884.0615 900.5313,884.6084 Q900.0469,885.1396 899.2813,885.1396 Q898.5781,885.1396 898.1563,884.749 Q897.7344,884.3584 897.5313,883.2803 Q897.4063,882.5615 897.0469,882.1709 Q896.3438,881.4053 895.0781,880.9521 Q893.8281,880.4834 892.5625,880.4834 Q891,880.4834 889.6719,881.1709 Q888.3594,881.8428 887.3438,883.3896 Q886.3438,884.9209 886.3438,887.0459 L886.3438,889.3115 Q886.3438,891.8428 888.1719,893.5459 Q890.0156,895.2334 893.2813,895.2334 Q895.2344,895.2334 896.5781,894.7021 Q897.375,894.3896 898.2656,893.4834 Q898.8125,892.9365 899.1094,892.7803 Q899.4219,892.6084 899.8125,892.6084 Q900.5156,892.6084 901.0469,893.1396 Q901.5781,893.6709 901.5781,894.3896 Q901.5781,895.1084 900.8594,895.9209 Q899.8125,897.124 898.1719,897.8115 Q895.9688,898.7334 893.2969,898.7334 Q890.1875,898.7334 887.7031,897.4521 Q885.6875,896.4209 884.2656,894.2178 Q882.8438,891.999 882.8438,889.3896 L882.8438,886.999 Q882.8438,884.2646 884.1094,881.9053 Q885.3906,879.5459 887.6406,878.2646 Q889.9063,876.9678 892.4375,876.9678 Q893.9531,876.9678 895.2656,877.3271 Q896.5938,877.6709 897.75,878.3896 Z " fill="#000000"/><text fill="#000000" font-family="Arial" font-size="35" lengthAdjust="spacing" textLength="126" x="922.75" y="899.1016">Adresse</text><line style="stroke:#000000;stroke-width:0.5;" x1="782" x2="1142" y1="911.5186" y2="911.5186"/><ellipse cx="792" cy="936.5693" fill="none" rx="3" ry="3" style="stroke:#038048;stroke-width:1.0;"/><text fill="#000000" font-family="Arial" font-size="35" lengthAdjust="spacing" textLength="92" x="807" y="947.2031">id : int</text><ellipse cx="792" cy="975.6709" fill="none" rx="3" ry="3" style="stroke:#038048;stroke-width:1.0;"/><text fill="#000000" font-family="Arial" font-size="35" lengthAdjust="spacing" textLength="180" x="807" y="986.3047">client_id: int</text><ellipse cx="792" cy="1014.7725" fill="none" rx="3" ry="3" style="stroke:#038048;stroke-width:1.0;"/><text fill="#000000" font-family="Arial" font-size="35" lengthAdjust="spacing" textLength="169" x="807" y="1025.4063">type: string</text><ellipse cx="792" cy="1053.874" fill="none" rx="3" ry="3" style="stroke:#038048;stroke-width:1.0;"/><text fill="#000000" font-family="Arial" font-size="35" lengthAdjust="spacing" textLength="245" x="807" y="1064.5078">adresse1: string</text><ellipse cx="792" cy="1092.9756" fill="none" rx="3" ry="3" style="stroke:#038048;stroke-width:1.0;"/><text fill="#000000" font-family="Arial" font-size="35" lengthAdjust="spacing" textLength="245" x="807" y="1103.6094">adresse2: string</text><ellipse cx="792" cy="1132.0771" fill="none" rx="3" ry="3" style="stroke:#038048;stroke-width:1.0;"/><text fill="#000000" font-family="Arial" font-size="35" lengthAdjust="spacing" textLength="161" x="807" y="1142.7109">ville: string</text><ellipse cx="792" cy="1171.1787" fill="none" rx="3" ry="3" style="stroke:#038048;stroke-width:1.0;"/><text fill="#000000" font-family="Arial" font-size="35" lengthAdjust="spacing" textLength="161" x="807" y="1181.8125">etat: string</text><ellipse cx="792" cy="1210.2803" fill="none" rx="3" ry="3" style="stroke:#038048;stroke-width:1.0;"/><text fill="#000000" font-family="Arial" font-size="35" lengthAdjust="spacing" textLength="287" x="807" y="1220.9141">code_postal: string</text><ellipse cx="792" cy="1249.3818" fill="none" rx="3" ry="3" style="stroke:#038048;stroke-width:1.0;"/><text fill="#000000" font-family="Arial" font-size="35" lengthAdjust="spacing" textLength="269" x="807" y="1260.0156">code_pays: string</text><ellipse cx="792" cy="1288.4834" fill="none" rx="3" ry="3" style="stroke:#038048;stroke-width:1.0;"/><text fill="#000000" font-family="Arial" font-size="35" lengthAdjust="spacing" textLength="288" x="807" y="1299.1172">cree_le: timestamp</text><ellipse cx="792" cy="1327.585" fill="none" rx="3" ry="3" style="stroke:#038048;stroke-width:1.0;"/><text fill="#000000" font-family="Arial" font-size="35" lengthAdjust="spacing" textLength="330" x="807" y="1338.2188">modifie_le: timestamp</text><line style="stroke:#000000;stroke-width:0.5;" x1="782" x2="1142" y1="1349.6357" y2="1349.6357"/></g><!--class Pays--><g id="elem_Pays"><rect codeLine="59" fill="#ADD8E6" height="260.6094" id="Pays" rx="2.5" ry="2.5" style="stroke:#000000;stroke-width:0.5;" width="362" x="1367" y="938.417"/><ellipse cx="1504.25" cy="962.9678" fill="#ADD1B2" rx="17" ry="17" style="stroke:#181818;stroke-width:1.0;"/><path d="M1508.75,954.3896 Q1509.0781,953.9521 1509.4531,953.7334 Q1509.8438,953.499 1510.2813,953.499 Q1511.0469,953.499 1511.5313,954.0303 Q1512.0313,954.5615 1512.0313,955.8271 L1512.0313,958.7959 Q1512.0313,960.0615 1511.5313,960.6084 Q1511.0469,961.1396 1510.2813,961.1396 Q1509.5781,961.1396 1509.1563,960.749 Q1508.7344,960.3584 1508.5313,959.2803 Q1508.4063,958.5615 1508.0469,958.1709 Q1507.3438,957.4053 1506.0781,956.9521 Q1504.8281,956.4834 1503.5625,956.4834 Q1502,956.4834 1500.6719,957.1709 Q1499.3594,957.8428 1498.3438,959.3896 Q1497.3438,960.9209 1497.3438,963.0459 L1497.3438,965.3115 Q1497.3438,967.8428 1499.1719,969.5459 Q1501.0156,971.2334 1504.2813,971.2334 Q1506.2344,971.2334 1507.5781,970.7021 Q1508.375,970.3896 1509.2656,969.4834 Q1509.8125,968.9365 1510.1094,968.7803 Q1510.4219,968.6084 1510.8125,968.6084 Q1511.5156,968.6084 1512.0469,969.1396 Q1512.5781,969.6709 1512.5781,970.3896 Q1512.5781,971.1084 1511.8594,971.9209 Q1510.8125,973.124 1509.1719,973.8115 Q1506.9688,974.7334 1504.2969,974.7334 Q1501.1875,974.7334 1498.7031,973.4521 Q1496.6875,972.4209 1495.2656,970.2178 Q1493.8438,967.999 1493.8438,965.3896 L1493.8438,962.999 Q1493.8438,960.2646 1495.1094,957.9053 Q1496.3906,955.5459 1498.6406,954.2646 Q1500.9063,952.9678 1503.4375,952.9678 Q1504.9531,952.9678 1506.2656,953.3271 Q1507.5938,953.6709 1508.75,954.3896 Z " fill="#000000"/><text fill="#000000" font-family="Arial" font-size="35" lengthAdjust="spacing" textLength="76" x="1533.75" y="975.1016">Pays</text><line style="stroke:#000000;stroke-width:0.5;" x1="1368" x2="1728" y1="987.5186" y2="987.5186"/><ellipse cx="1378" cy="1012.5693" fill="none" rx="3" ry="3" style="stroke:#038048;stroke-width:1.0;"/><text fill="#000000" font-family="Arial" font-size="35" lengthAdjust="spacing" textLength="92" x="1393" y="1023.2031">id : int</text><ellipse cx="1378" cy="1051.6709" fill="none" rx="3" ry="3" style="stroke:#038048;stroke-width:1.0;"/><text fill="#000000" font-family="Arial" font-size="35" lengthAdjust="spacing" textLength="171" x="1393" y="1062.3047">nom: string</text><ellipse cx="1378" cy="1090.7725" fill="none" rx="3" ry="3" style="stroke:#038048;stroke-width:1.0;"/><text fill="#000000" font-family="Arial" font-size="35" lengthAdjust="spacing" textLength="179" x="1393" y="1101.4063">etats: string</text><ellipse cx="1378" cy="1129.874" fill="none" rx="3" ry="3" style="stroke:#038048;stroke-width:1.0;"/><text fill="#000000" font-family="Arial" font-size="35" lengthAdjust="spacing" textLength="288" x="1393" y="1140.5078">cree_le: timestamp</text><ellipse cx="1378" cy="1168.9756" fill="none" rx="3" ry="3" style="stroke:#038048;stroke-width:1.0;"/><text fill="#000000" font-family="Arial" font-size="35" lengthAdjust="spacing" textLength="330" x="1393" y="1179.6094">modifie_le: timestamp</text><line style="stroke:#000000;stroke-width:0.5;" x1="1368" x2="1728" y1="1191.0264" y2="1191.0264"/></g><!--class Commande--><g id="elem_Commande"><rect codeLine="68" fill="#ADD8E6" height="377.9141" id="Commande" rx="2.5" ry="2.5" style="stroke:#000000;stroke-width:0.5;" width="386" x="769" y="155.917"/><ellipse cx="868.75" cy="180.4678" fill="#ADD1B2" rx="17" ry="17" style="stroke:#181818;stroke-width:1.0;"/><path d="M873.25,171.8896 Q873.5781,171.4521 873.9531,171.2334 Q874.3438,170.999 874.7813,170.999 Q875.5469,170.999 876.0313,171.5303 Q876.5313,172.0615 876.5313,173.3271 L876.5313,176.2959 Q876.5313,177.5615 876.0313,178.1084 Q875.5469,178.6396 874.7813,178.6396 Q874.0781,178.6396 873.6563,178.249 Q873.2344,177.8584 873.0313,176.7803 Q872.9063,176.0615 872.5469,175.6709 Q871.8438,174.9053 870.5781,174.4521 Q869.3281,173.9834 868.0625,173.9834 Q866.5,173.9834 865.1719,174.6709 Q863.8594,175.3428 862.8438,176.8896 Q861.8438,178.4209 861.8438,180.5459 L861.8438,182.8115 Q861.8438,185.3428 863.6719,187.0459 Q865.5156,188.7334 868.7813,188.7334 Q870.7344,188.7334 872.0781,188.2021 Q872.875,187.8896 873.7656,186.9834 Q874.3125,186.4365 874.6094,186.2803 Q874.9219,186.1084 875.3125,186.1084 Q876.0156,186.1084 876.5469,186.6396 Q877.0781,187.1709 877.0781,187.8896 Q877.0781,188.6084 876.3594,189.4209 Q875.3125,190.624 873.6719,191.3115 Q871.4688,192.2334 868.7969,192.2334 Q865.6875,192.2334 863.2031,190.9521 Q861.1875,189.9209 859.7656,187.7178 Q858.3438,185.499 858.3438,182.8896 L858.3438,180.499 Q858.3438,177.7646 859.6094,175.4053 Q860.8906,173.0459 863.1406,171.7646 Q865.4063,170.4678 867.9375,170.4678 Q869.4531,170.4678 870.7656,170.8271 Q872.0938,171.1709 873.25,171.8896 Z " fill="#000000"/><text fill="#000000" font-family="Arial" font-size="35" lengthAdjust="spacing" textLength="175" x="898.25" y="192.6016">Commande</text><line style="stroke:#000000;stroke-width:0.5;" x1="770" x2="1154" y1="205.0186" y2="205.0186"/><ellipse cx="780" cy="230.0693" fill="none" rx="3" ry="3" style="stroke:#038048;stroke-width:1.0;"/><text fill="#000000" font-family="Arial" font-size="35" lengthAdjust="spacing" textLength="92" x="795" y="240.7031">id : int</text><ellipse cx="780" cy="269.1709" fill="none" rx="3" ry="3" style="stroke:#038048;stroke-width:1.0;"/><text fill="#000000" font-family="Arial" font-size="35" lengthAdjust="spacing" textLength="180" x="795" y="279.8047">client_id: int</text><ellipse cx="780" cy="308.2725" fill="none" rx="3" ry="3" style="stroke:#038048;stroke-width:1.0;"/><text fill="#000000" font-family="Arial" font-size="35" lengthAdjust="spacing" textLength="256" x="795" y="318.9063">prix_total: double</text><ellipse cx="780" cy="347.374" fill="none" rx="3" ry="3" style="stroke:#038048;stroke-width:1.0;"/><text fill="#000000" font-family="Arial" font-size="35" lengthAdjust="spacing" textLength="190" x="795" y="358.0078">statut: string</text><ellipse cx="780" cy="386.4756" fill="none" rx="3" ry="3" style="stroke:#038048;stroke-width:1.0;"/><text fill="#000000" font-family="Arial" font-size="35" lengthAdjust="spacing" textLength="288" x="795" y="397.1094">cree_le: timestamp</text><ellipse cx="780" cy="425.5771" fill="none" rx="3" ry="3" style="stroke:#038048;stroke-width:1.0;"/><text fill="#000000" font-family="Arial" font-size="35" lengthAdjust="spacing" textLength="330" x="795" y="436.2109">modifie_le: timestamp</text><ellipse cx="780" cy="464.6787" fill="none" rx="3" ry="3" style="stroke:#038048;stroke-width:1.0;"/><text fill="#000000" font-family="Arial" font-size="35" lengthAdjust="spacing" textLength="312" x="795" y="475.3125">cree_par: timestamp</text><ellipse cx="780" cy="503.7803" fill="none" rx="3" ry="3" style="stroke:#038048;stroke-width:1.0;"/><text fill="#000000" font-family="Arial" font-size="35" lengthAdjust="spacing" textLength="354" x="795" y="514.4141">modifie_par: timestamp</text><line style="stroke:#000000;stroke-width:0.5;" x1="770" x2="1154" y1="525.8311" y2="525.8311"/></g><!--class ArticleCommande--><g id="elem_ArticleCommande"><rect codeLine="79" fill="#ADD8E6" height="338.8125" id="ArticleCommande" rx="2.5" ry="2.5" style="stroke:#000000;stroke-width:0.5;" width="362" x="3233" y="200.417"/><ellipse cx="3275.6" cy="224.9678" fill="#ADD1B2" rx="17" ry="17" style="stroke:#181818;stroke-width:1.0;"/><path d="M3280.1,216.3896 Q3280.4281,215.9521 3280.8031,215.7334 Q3281.1938,215.499 3281.6313,215.499 Q3282.3969,215.499 3282.8813,216.0303 Q3283.3813,216.5615 3283.3813,217.8271 L3283.3813,220.7959 Q3283.3813,222.0615 3282.8813,222.6084 Q3282.3969,223.1396 3281.6313,223.1396 Q3280.9281,223.1396 3280.5063,222.749 Q3280.0844,222.3584 3279.8813,221.2803 Q3279.7563,220.5615 3279.3969,220.1709 Q3278.6938,219.4053 3277.4281,218.9521 Q3276.1781,218.4834 3274.9125,218.4834 Q3273.35,218.4834 3272.0219,219.1709 Q3270.7094,219.8428 3269.6938,221.3896 Q3268.6938,222.9209 3268.6938,225.0459 L3268.6938,227.3115 Q3268.6938,229.8428 3270.5219,231.5459 Q3272.3656,233.2334 3275.6313,233.2334 Q3277.5844,233.2334 3278.9281,232.7021 Q3279.725,232.3896 3280.6156,231.4834 Q3281.1625,230.9365 3281.4594,230.7803 Q3281.7719,230.6084 3282.1625,230.6084 Q3282.8656,230.6084 3283.3969,231.1396 Q3283.9281,231.6709 3283.9281,232.3896 Q3283.9281,233.1084 3283.2094,233.9209 Q3282.1625,235.124 3280.5219,235.8115 Q3278.3188,236.7334 3275.6469,236.7334 Q3272.5375,236.7334 3270.0531,235.4521 Q3268.0375,234.4209 3266.6156,232.2178 Q3265.1938,229.999 3265.1938,227.3896 L3265.1938,224.999 Q3265.1938,222.2646 3266.4594,219.9053 Q3267.7406,217.5459 3269.9906,216.2646 Q3272.2563,214.9678 3274.7875,214.9678 Q3276.3031,214.9678 3277.6156,215.3271 Q3278.9438,215.6709 3280.1,216.3896 Z " fill="#000000"/><text fill="#000000" font-family="Arial" font-size="35" lengthAdjust="spacing" textLength="270" x="3300.4" y="237.1016">ArticleCommande</text><line style="stroke:#000000;stroke-width:0.5;" x1="3234" x2="3594" y1="249.5186" y2="249.5186"/><ellipse cx="3244" cy="274.5693" fill="none" rx="3" ry="3" style="stroke:#038048;stroke-width:1.0;"/><text fill="#000000" font-family="Arial" font-size="35" lengthAdjust="spacing" textLength="92" x="3259" y="285.2031">id : int</text><ellipse cx="3244" cy="313.6709" fill="none" rx="3" ry="3" style="stroke:#038048;stroke-width:1.0;"/><text fill="#000000" font-family="Arial" font-size="35" lengthAdjust="spacing" textLength="269" x="3259" y="324.3047">commande_id: int</text><ellipse cx="3244" cy="352.7725" fill="none" rx="3" ry="3" style="stroke:#038048;stroke-width:1.0;"/><text fill="#000000" font-family="Arial" font-size="35" lengthAdjust="spacing" textLength="205" x="3259" y="363.4063">produit_id: int</text><ellipse cx="3244" cy="391.874" fill="none" rx="3" ry="3" style="stroke:#038048;stroke-width:1.0;"/><text fill="#000000" font-family="Arial" font-size="35" lengthAdjust="spacing" textLength="176" x="3259" y="402.5078">quantite: int</text><ellipse cx="3244" cy="430.9756" fill="none" rx="3" ry="3" style="stroke:#038048;stroke-width:1.0;"/><text fill="#000000" font-family="Arial" font-size="35" lengthAdjust="spacing" textLength="303" x="3259" y="441.6094">prix_unitaire: double</text><ellipse cx="3244" cy="470.0771" fill="none" rx="3" ry="3" style="stroke:#038048;stroke-width:1.0;"/><text fill="#000000" font-family="Arial" font-size="35" lengthAdjust="spacing" textLength="288" x="3259" y="480.7109">cree_le: timestamp</text><ellipse cx="3244" cy="509.1787" fill="none" rx="3" ry="3" style="stroke:#038048;stroke-width:1.0;"/><text fill="#000000" font-family="Arial" font-size="35" lengthAdjust="spacing" textLength="330" x="3259" y="519.8125">modifie_le: timestamp</text><line style="stroke:#000000;stroke-width:0.5;" x1="3234" x2="3594" y1="531.2295" y2="531.2295"/></g><!--class Paiement--><g id="elem_Paiement"><rect codeLine="89" fill="#ADD8E6" height="338.8125" id="Paiement" rx="2.5" ry="2.5" style="stroke:#000000;stroke-width:0.5;" width="344" x="1376" y="105.417"/><ellipse cx="1471.25" cy="129.9678" fill="#ADD1B2" rx="17" ry="17" style="stroke:#181818;stroke-width:1.0;"/><path d="M1475.75,121.3896 Q1476.0781,120.9521 1476.4531,120.7334 Q1476.8438,120.499 1477.2813,120.499 Q1478.0469,120.499 1478.5313,121.0303 Q1479.0313,121.5615 1479.0313,122.8271 L1479.0313,125.7959 Q1479.0313,127.0615 1478.5313,127.6084 Q1478.0469,128.1396 1477.2813,128.1396 Q1476.5781,128.1396 1476.1563,127.749 Q1475.7344,127.3584 1475.5313,126.2803 Q1475.4063,125.5615 1475.0469,125.1709 Q1474.3438,124.4053 1473.0781,123.9521 Q1471.8281,123.4834 1470.5625,123.4834 Q1469,123.4834 1467.6719,124.1709 Q1466.3594,124.8428 1465.3438,126.3896 Q1464.3438,127.9209 1464.3438,130.0459 L1464.3438,132.3115 Q1464.3438,134.8428 1466.1719,136.5459 Q1468.0156,138.2334 1471.2813,138.2334 Q1473.2344,138.2334 1474.5781,137.7021 Q1475.375,137.3896 1476.2656,136.4834 Q1476.8125,135.9365 1477.1094,135.7803 Q1477.4219,135.6084 1477.8125,135.6084 Q1478.5156,135.6084 1479.0469,136.1396 Q1479.5781,136.6709 1479.5781,137.3896 Q1479.5781,138.1084 1478.8594,138.9209 Q1477.8125,140.124 1476.1719,140.8115 Q1473.9688,141.7334 1471.2969,141.7334 Q1468.1875,141.7334 1465.7031,140.4521 Q1463.6875,139.4209 1462.2656,137.2178 Q1460.8438,134.999 1460.8438,132.3896 L1460.8438,129.999 Q1460.8438,127.2646 1462.1094,124.9053 Q1463.3906,122.5459 1465.6406,121.2646 Q1467.9063,119.9678 1470.4375,119.9678 Q1471.9531,119.9678 1473.2656,120.3271 Q1474.5938,120.6709 1475.75,121.3896 Z " fill="#000000"/><text fill="#000000" font-family="Arial" font-size="35" lengthAdjust="spacing" textLength="142" x="1500.75" y="142.1016">Paiement</text><line style="stroke:#000000;stroke-width:0.5;" x1="1377" x2="1719" y1="154.5186" y2="154.5186"/><ellipse cx="1387" cy="179.5693" fill="none" rx="3" ry="3" style="stroke:#038048;stroke-width:1.0;"/><text fill="#000000" font-family="Arial" font-size="35" lengthAdjust="spacing" textLength="92" x="1402" y="190.2031">id : int</text><ellipse cx="1387" cy="218.6709" fill="none" rx="3" ry="3" style="stroke:#038048;stroke-width:1.0;"/><text fill="#000000" font-family="Arial" font-size="35" lengthAdjust="spacing" textLength="269" x="1402" y="229.3047">commande_id: int</text><ellipse cx="1387" cy="257.7725" fill="none" rx="3" ry="3" style="stroke:#038048;stroke-width:1.0;"/><text fill="#000000" font-family="Arial" font-size="35" lengthAdjust="spacing" textLength="243" x="1402" y="268.4063">montant: double</text><ellipse cx="1387" cy="296.874" fill="none" rx="3" ry="3" style="stroke:#038048;stroke-width:1.0;"/><text fill="#000000" font-family="Arial" font-size="35" lengthAdjust="spacing" textLength="190" x="1402" y="307.5078">statut: string</text><ellipse cx="1387" cy="335.9756" fill="none" rx="3" ry="3" style="stroke:#038048;stroke-width:1.0;"/><text fill="#000000" font-family="Arial" font-size="35" lengthAdjust="spacing" textLength="169" x="1402" y="346.6094">type: string</text><ellipse cx="1387" cy="375.0771" fill="none" rx="3" ry="3" style="stroke:#038048;stroke-width:1.0;"/><text fill="#000000" font-family="Arial" font-size="35" lengthAdjust="spacing" textLength="288" x="1402" y="385.7109">cree_le: timestamp</text><ellipse cx="1387" cy="414.1787" fill="none" rx="3" ry="3" style="stroke:#038048;stroke-width:1.0;"/><text fill="#000000" font-family="Arial" font-size="35" lengthAdjust="spacing" textLength="312" x="1402" y="424.8125">cree_par: timestamp</text><line style="stroke:#000000;stroke-width:0.5;" x1="1377" x2="1719" y1="436.2295" y2="436.2295"/></g><!--class Produit--><g id="elem_Produit"><rect codeLine="100" fill="#ADD8E6" height="690.7266" id="Produit" rx="2.5" ry="2.5" style="stroke:#000000;stroke-width:0.5;" width="419" x="2566" y="165.417"/><ellipse cx="2715.75" cy="189.9678" fill="#ADD1B2" rx="17" ry="17" style="stroke:#181818;stroke-width:1.0;"/><path d="M2720.25,181.3896 Q2720.5781,180.9521 2720.9531,180.7334 Q2721.3438,180.499 2721.7813,180.499 Q2722.5469,180.499 2723.0313,181.0303 Q2723.5313,181.5615 2723.5313,182.8271 L2723.5313,185.7959 Q2723.5313,187.0615 2723.0313,187.6084 Q2722.5469,188.1396 2721.7813,188.1396 Q2721.0781,188.1396 2720.6563,187.749 Q2720.2344,187.3584 2720.0313,186.2803 Q2719.9063,185.5615 2719.5469,185.1709 Q2718.8438,184.4053 2717.5781,183.9521 Q2716.3281,183.4834 2715.0625,183.4834 Q2713.5,183.4834 2712.1719,184.1709 Q2710.8594,184.8428 2709.8438,186.3896 Q2708.8438,187.9209 2708.8438,190.0459 L2708.8438,192.3115 Q2708.8438,194.8428 2710.6719,196.5459 Q2712.5156,198.2334 2715.7813,198.2334 Q2717.7344,198.2334 2719.0781,197.7021 Q2719.875,197.3896 2720.7656,196.4834 Q2721.3125,195.9365 2721.6094,195.7803 Q2721.9219,195.6084 2722.3125,195.6084 Q2723.0156,195.6084 2723.5469,196.1396 Q2724.0781,196.6709 2724.0781,197.3896 Q2724.0781,198.1084 2723.3594,198.9209 Q2722.3125,200.124 2720.6719,200.8115 Q2718.4688,201.7334 2715.7969,201.7334 Q2712.6875,201.7334 2710.2031,200.4521 Q2708.1875,199.4209 2706.7656,197.2178 Q2705.3438,194.999 2705.3438,192.3896 L2705.3438,189.999 Q2705.3438,187.2646 2706.6094,184.9053 Q2707.8906,182.5459 2710.1406,181.2646 Q2712.4063,179.9678 2714.9375,179.9678 Q2716.4531,179.9678 2717.7656,180.3271 Q2719.0938,180.6709 2720.25,181.3896 Z " fill="#000000"/><text fill="#000000" font-family="Arial" font-size="35" lengthAdjust="spacing" textLength="108" x="2745.25" y="202.1016">Produit</text><line style="stroke:#000000;stroke-width:0.5;" x1="2567" x2="2984" y1="214.5186" y2="214.5186"/><ellipse cx="2577" cy="239.5693" fill="none" rx="3" ry="3" style="stroke:#038048;stroke-width:1.0;"/><text fill="#000000" font-family="Arial" font-size="35" lengthAdjust="spacing" textLength="92" x="2592" y="250.2031">id : int</text><ellipse cx="2577" cy="278.6709" fill="none" rx="3" ry="3" style="stroke:#038048;stroke-width:1.0;"/><text fill="#000000" font-family="Arial" font-size="35" lengthAdjust="spacing" textLength="239" x="2592" y="289.3047">categorie_id: int</text><ellipse cx="2577" cy="317.7725" fill="none" rx="3" ry="3" style="stroke:#038048;stroke-width:1.0;"/><text fill="#000000" font-family="Arial" font-size="35" lengthAdjust="spacing" textLength="162" x="2592" y="328.4063">titre: string</text><ellipse cx="2577" cy="356.874" fill="none" rx="3" ry="3" style="stroke:#038048;stroke-width:1.0;"/><text fill="#000000" font-family="Arial" font-size="35" lengthAdjust="spacing" textLength="168" x="2592" y="367.5078">slug: string</text><ellipse cx="2577" cy="395.9756" fill="none" rx="3" ry="3" style="stroke:#038048;stroke-width:1.0;"/><text fill="#000000" font-family="Arial" font-size="35" lengthAdjust="spacing" textLength="196" x="2592" y="406.6094">image: string</text><ellipse cx="2577" cy="435.0771" fill="none" rx="3" ry="3" style="stroke:#038048;stroke-width:1.0;"/><text fill="#000000" font-family="Arial" font-size="35" lengthAdjust="spacing" textLength="298" x="2592" y="445.7109">image_mime: string</text><ellipse cx="2577" cy="474.1787" fill="none" rx="3" ry="3" style="stroke:#038048;stroke-width:1.0;"/><text fill="#000000" font-family="Arial" font-size="35" lengthAdjust="spacing" textLength="233" x="2592" y="484.8125">taille_image: int</text><ellipse cx="2577" cy="513.2803" fill="none" rx="3" ry="3" style="stroke:#038048;stroke-width:1.0;"/><text fill="#000000" font-family="Arial" font-size="35" lengthAdjust="spacing" textLength="313" x="2592" y="523.9141">description: longText</text><ellipse cx="2577" cy="552.3818" fill="none" rx="3" ry="3" style="stroke:#038048;stroke-width:1.0;"/><text fill="#000000" font-family="Arial" font-size="35" lengthAdjust="spacing" textLength="222" x="2592" y="563.0156">statut: boolean</text><ellipse cx="2577" cy="591.4834" fill="none" rx="3" ry="3" style="stroke:#038048;stroke-width:1.0;"/><text fill="#000000" font-family="Arial" font-size="35" lengthAdjust="spacing" textLength="174" x="2592" y="602.1172">prix: double</text><ellipse cx="2577" cy="630.585" fill="none" rx="3" ry="3" style="stroke:#038048;stroke-width:1.0;"/><text fill="#000000" font-family="Arial" font-size="35" lengthAdjust="spacing" textLength="288" x="2592" y="641.2188">cree_le: timestamp</text><ellipse cx="2577" cy="669.6865" fill="none" rx="3" ry="3" style="stroke:#038048;stroke-width:1.0;"/><text fill="#000000" font-family="Arial" font-size="35" lengthAdjust="spacing" textLength="330" x="2592" y="680.3203">modifie_le: timestamp</text><ellipse cx="2577" cy="708.7881" fill="none" rx="3" ry="3" style="stroke:#038048;stroke-width:1.0;"/><text fill="#000000" font-family="Arial" font-size="35" lengthAdjust="spacing" textLength="363" x="2592" y="719.4219">supprime_le: timestamp</text><ellipse cx="2577" cy="747.8896" fill="none" rx="3" ry="3" style="stroke:#038048;stroke-width:1.0;"/><text fill="#000000" font-family="Arial" font-size="35" lengthAdjust="spacing" textLength="312" x="2592" y="758.5234">cree_par: timestamp</text><ellipse cx="2577" cy="786.9912" fill="none" rx="3" ry="3" style="stroke:#038048;stroke-width:1.0;"/><text fill="#000000" font-family="Arial" font-size="35" lengthAdjust="spacing" textLength="354" x="2592" y="797.625">modifie_par: timestamp</text><ellipse cx="2577" cy="826.0928" fill="none" rx="3" ry="3" style="stroke:#038048;stroke-width:1.0;"/><text fill="#000000" font-family="Arial" font-size="35" lengthAdjust="spacing" textLength="387" x="2592" y="836.7266">supprime_par: timestamp</text><line style="stroke:#000000;stroke-width:0.5;" x1="2567" x2="2984" y1="848.1436" y2="848.1436"/></g><!--class Categorie--><g id="elem_Categorie"><rect codeLine="119" fill="#ADD8E6" height="338.8125" id="Categorie" rx="2.5" ry="2.5" style="stroke:#000000;stroke-width:0.5;" width="419" x="1919" y="696.417"/><ellipse cx="2050.25" cy="720.9678" fill="#ADD1B2" rx="17" ry="17" style="stroke:#181818;stroke-width:1.0;"/><path d="M2054.75,712.3896 Q2055.0781,711.9521 2055.4531,711.7334 Q2055.8438,711.499 2056.2813,711.499 Q2057.0469,711.499 2057.5313,712.0303 Q2058.0313,712.5615 2058.0313,713.8271 L2058.0313,716.7959 Q2058.0313,718.0615 2057.5313,718.6084 Q2057.0469,719.1396 2056.2813,719.1396 Q2055.5781,719.1396 2055.1563,718.749 Q2054.7344,718.3584 2054.5313,717.2803 Q2054.4063,716.5615 2054.0469,716.1709 Q2053.3438,715.4053 2052.0781,714.9521 Q2050.8281,714.4834 2049.5625,714.4834 Q2048,714.4834 2046.6719,715.1709 Q2045.3594,715.8428 2044.3438,717.3896 Q2043.3438,718.9209 2043.3438,721.0459 L2043.3438,723.3115 Q2043.3438,725.8428 2045.1719,727.5459 Q2047.0156,729.2334 2050.2813,729.2334 Q2052.2344,729.2334 2053.5781,728.7021 Q2054.375,728.3896 2055.2656,727.4834 Q2055.8125,726.9365 2056.1094,726.7803 Q2056.4219,726.6084 2056.8125,726.6084 Q2057.5156,726.6084 2058.0469,727.1396 Q2058.5781,727.6709 2058.5781,728.3896 Q2058.5781,729.1084 2057.8594,729.9209 Q2056.8125,731.124 2055.1719,731.8115 Q2052.9688,732.7334 2050.2969,732.7334 Q2047.1875,732.7334 2044.7031,731.4521 Q2042.6875,730.4209 2041.2656,728.2178 Q2039.8438,725.999 2039.8438,723.3896 L2039.8438,720.999 Q2039.8438,718.2646 2041.1094,715.9053 Q2042.3906,713.5459 2044.6406,712.2646 Q2046.9063,710.9678 2049.4375,710.9678 Q2050.9531,710.9678 2052.2656,711.3271 Q2053.5938,711.6709 2054.75,712.3896 Z " fill="#000000"/><text fill="#000000" font-family="Arial" font-size="35" lengthAdjust="spacing" textLength="145" x="2079.75" y="733.1016">Categorie</text><line style="stroke:#000000;stroke-width:0.5;" x1="1920" x2="2337" y1="745.5186" y2="745.5186"/><ellipse cx="1930" cy="770.5693" fill="none" rx="3" ry="3" style="stroke:#038048;stroke-width:1.0;"/><text fill="#000000" font-family="Arial" font-size="35" lengthAdjust="spacing" textLength="92" x="1945" y="781.2031">id : int</text><ellipse cx="1930" cy="809.6709" fill="none" rx="3" ry="3" style="stroke:#038048;stroke-width:1.0;"/><text fill="#000000" font-family="Arial" font-size="35" lengthAdjust="spacing" textLength="171" x="1945" y="820.3047">nom: string</text><ellipse cx="1930" cy="848.7725" fill="none" rx="3" ry="3" style="stroke:#038048;stroke-width:1.0;"/><text fill="#000000" font-family="Arial" font-size="35" lengthAdjust="spacing" textLength="168" x="1945" y="859.4063">slug: string</text><ellipse cx="1930" cy="887.874" fill="none" rx="3" ry="3" style="stroke:#038048;stroke-width:1.0;"/><text fill="#000000" font-family="Arial" font-size="35" lengthAdjust="spacing" textLength="222" x="1945" y="898.5078">statut: boolean</text><ellipse cx="1930" cy="926.9756" fill="none" rx="3" ry="3" style="stroke:#038048;stroke-width:1.0;"/><text fill="#000000" font-family="Arial" font-size="35" lengthAdjust="spacing" textLength="312" x="1945" y="937.6094">cree_par: timestamp</text><ellipse cx="1930" cy="966.0771" fill="none" rx="3" ry="3" style="stroke:#038048;stroke-width:1.0;"/><text fill="#000000" font-family="Arial" font-size="35" lengthAdjust="spacing" textLength="354" x="1945" y="976.7109">modifie_par: timestamp</text><ellipse cx="1930" cy="1005.1787" fill="none" rx="3" ry="3" style="stroke:#038048;stroke-width:1.0;"/><text fill="#000000" font-family="Arial" font-size="35" lengthAdjust="spacing" textLength="387" x="1945" y="1015.8125">supprime_par: timestamp</text><line style="stroke:#000000;stroke-width:0.5;" x1="1920" x2="2337" y1="1027.2295" y2="1027.2295"/></g><!--class ArticlePanier--><g id="elem_ArticlePanier"><rect codeLine="130" fill="#ADD8E6" height="299.7109" id="ArticlePanier" rx="2.5" ry="2.5" style="stroke:#000000;stroke-width:0.5;" width="362" x="1947.5" y="360.917"/><ellipse cx="2026.75" cy="385.4678" fill="#ADD1B2" rx="17" ry="17" style="stroke:#181818;stroke-width:1.0;"/><path d="M2031.25,376.8896 Q2031.5781,376.4521 2031.9531,376.2334 Q2032.3438,375.999 2032.7813,375.999 Q2033.5469,375.999 2034.0313,376.5303 Q2034.5313,377.0615 2034.5313,378.3271 L2034.5313,381.2959 Q2034.5313,382.5615 2034.0313,383.1084 Q2033.5469,383.6396 2032.7813,383.6396 Q2032.0781,383.6396 2031.6563,383.249 Q2031.2344,382.8584 2031.0313,381.7803 Q2030.9063,381.0615 2030.5469,380.6709 Q2029.8438,379.9053 2028.5781,379.4521 Q2027.3281,378.9834 2026.0625,378.9834 Q2024.5,378.9834 2023.1719,379.6709 Q2021.8594,380.3428 2020.8438,381.8896 Q2019.8438,383.4209 2019.8438,385.5459 L2019.8438,387.8115 Q2019.8438,390.3428 2021.6719,392.0459 Q2023.5156,393.7334 2026.7813,393.7334 Q2028.7344,393.7334 2030.0781,393.2021 Q2030.875,392.8896 2031.7656,391.9834 Q2032.3125,391.4365 2032.6094,391.2803 Q2032.9219,391.1084 2033.3125,391.1084 Q2034.0156,391.1084 2034.5469,391.6396 Q2035.0781,392.1709 2035.0781,392.8896 Q2035.0781,393.6084 2034.3594,394.4209 Q2033.3125,395.624 2031.6719,396.3115 Q2029.4688,397.2334 2026.7969,397.2334 Q2023.6875,397.2334 2021.2031,395.9521 Q2019.1875,394.9209 2017.7656,392.7178 Q2016.3438,390.499 2016.3438,387.8896 L2016.3438,385.499 Q2016.3438,382.7646 2017.6094,380.4053 Q2018.8906,378.0459 2021.1406,376.7646 Q2023.4063,375.4678 2025.9375,375.4678 Q2027.4531,375.4678 2028.7656,375.8271 Q2030.0938,376.1709 2031.25,376.8896 Z " fill="#000000"/><text fill="#000000" font-family="Arial" font-size="35" lengthAdjust="spacing" textLength="192" x="2056.25" y="397.6016">ArticlePanier</text><line style="stroke:#000000;stroke-width:0.5;" x1="1948.5" x2="2308.5" y1="410.0186" y2="410.0186"/><ellipse cx="1958.5" cy="435.0693" fill="none" rx="3" ry="3" style="stroke:#038048;stroke-width:1.0;"/><text fill="#000000" font-family="Arial" font-size="35" lengthAdjust="spacing" textLength="92" x="1973.5" y="445.7031">id : int</text><ellipse cx="1958.5" cy="474.1709" fill="none" rx="3" ry="3" style="stroke:#038048;stroke-width:1.0;"/><text fill="#000000" font-family="Arial" font-size="35" lengthAdjust="spacing" textLength="246" x="1973.5" y="484.8047">utilisateur_id: int</text><ellipse cx="1958.5" cy="513.2725" fill="none" rx="3" ry="3" style="stroke:#038048;stroke-width:1.0;"/><text fill="#000000" font-family="Arial" font-size="35" lengthAdjust="spacing" textLength="205" x="1973.5" y="523.9063">produit_id: int</text><ellipse cx="1958.5" cy="552.374" fill="none" rx="3" ry="3" style="stroke:#038048;stroke-width:1.0;"/><text fill="#000000" font-family="Arial" font-size="35" lengthAdjust="spacing" textLength="176" x="1973.5" y="563.0078">quantite: int</text><ellipse cx="1958.5" cy="591.4756" fill="none" rx="3" ry="3" style="stroke:#038048;stroke-width:1.0;"/><text fill="#000000" font-family="Arial" font-size="35" lengthAdjust="spacing" textLength="288" x="1973.5" y="602.1094">cree_le: timestamp</text><ellipse cx="1958.5" cy="630.5771" fill="none" rx="3" ry="3" style="stroke:#038048;stroke-width:1.0;"/><text fill="#000000" font-family="Arial" font-size="35" lengthAdjust="spacing" textLength="330" x="1973.5" y="641.2109">modifie_le: timestamp</text><line style="stroke:#000000;stroke-width:0.5;" x1="1948.5" x2="2308.5" y1="652.6279" y2="652.6279"/></g><!--link Client to Utilisateur--><g id="link_Client_Utilisateur"><path codeLine="140" d="M393.13,729.927 C653.08,720.457 1095.3819,704.3625 1348.9519,695.1225 " fill="none" id="Client-to-Utilisateur" style="stroke:#00008B;stroke-width:1.0;"/><polygon fill="none" points="1366.94,694.467,1348.7334,689.1265,1349.1704,701.1185,1366.94,694.467" style="stroke:#00008B;stroke-width:1.0;"/><text fill="#000000" font-family="Arial" font-size="35" lengthAdjust="spacing" textLength="94" x="915" y="694.6016">est un</text></g><!--link Client to Adresse--><g id="link_Client_Adresse"><path codeLine="141" d="M393.11,843.507 C403.19,848.777 413.2,853.947 423,858.917 C540.88,918.727 675.68,981.607 780.85,1029.467 " fill="none" id="Client-Adresse" style="stroke:#00008B;stroke-width:1.0;"/><text fill="#000000" font-family="Arial" font-size="35" lengthAdjust="spacing" textLength="314" x="424" y="850.6016">a plusieurs adresses</text><text fill="#000000" font-family="Arial" font-size="35" lengthAdjust="spacing" textLength="19" x="401.0245" y="880.1206">1</text><text fill="#000000" font-family="Arial" font-size="35" lengthAdjust="spacing" textLength="53" x="719.7387" y="1058.7684">1..*</text></g><!--link Client to Pays--><g id="link_Client_Pays"><path codeLine="142" d="M393.09,749.447 C629.9,766.497 1017.86,800.087 1155,844.917 C1228.01,868.787 1302.57,907.207 1366.79,945.537 " fill="none" id="Client-Pays" style="stroke:#00008B;stroke-width:1.0;"/><text fill="#000000" font-family="Arial" font-size="35" lengthAdjust="spacing" textLength="176" x="874" y="774.6016">r&#233;side dans</text><text fill="#000000" font-family="Arial" font-size="35" lengthAdjust="spacing" textLength="19" x="401.0037" y="782.3864">1</text><text fill="#000000" font-family="Arial" font-size="35" lengthAdjust="spacing" textLength="58" x="1301.2356" y="973.4972">0..1</text></g><!--link Client to Commande--><g id="link_Client_Commande"><path codeLine="143" d="M393.27,637.747 C508.27,578.437 653.89,503.317 768.86,444.017 " fill="none" id="Client-Commande" style="stroke:#00008B;stroke-width:1.0;"/><text fill="#000000" font-family="Arial" font-size="35" lengthAdjust="spacing" textLength="156" x="503" y="452.6016">passe des</text><text fill="#000000" font-family="Arial" font-size="35" lengthAdjust="spacing" textLength="19" x="401.1907" y="666.3231">1</text><text fill="#000000" font-family="Arial" font-size="35" lengthAdjust="spacing" textLength="53" x="707.9667" y="479.9671">0..*</text></g><!--link Commande to ArticleCommande--><g id="link_Commande_ArticleCommande"><path codeLine="145" d="M1155.18,192.407 C1263.79,121.217 1405.77,51.917 1547,51.917 C1547,51.917 1547,51.917 2776.5,51.917 C2943.42,51.917 3111.46,140.517 3232.93,224.177 " fill="none" id="Commande-ArticleCommande" style="stroke:#00008B;stroke-width:1.0;"/><text fill="#000000" font-family="Arial" font-size="35" lengthAdjust="spacing" textLength="119" x="2069" y="43.6016">contient</text><text fill="#000000" font-family="Arial" font-size="35" lengthAdjust="spacing" textLength="19" x="1163.0972" y="218.8995">1</text><text fill="#000000" font-family="Arial" font-size="35" lengthAdjust="spacing" textLength="53" x="3171.8218" y="250.936">0..*</text></g><!--link Commande to Paiement--><g id="link_Commande_Paiement"><path codeLine="146" d="M1155.03,321.897 C1226.18,313.367 1306.32,303.767 1375.52,295.467 " fill="none" id="Commande-Paiement" style="stroke:#00008B;stroke-width:1.0;"/><text fill="#000000" font-family="Arial" font-size="35" lengthAdjust="spacing" textLength="66" x="1228" y="293.6016">a un</text><text fill="#000000" font-family="Arial" font-size="35" lengthAdjust="spacing" textLength="19" x="1162.9413" y="353.4477">1</text><text fill="#000000" font-family="Arial" font-size="35" lengthAdjust="spacing" textLength="58" x="1310.2793" y="328.5961">0..1</text></g><!--link Commande to Utilisateur--><g id="link_Commande_Utilisateur"><path codeLine="147" d="M1155.03,457.707 C1223.18,497.727 1299.6,542.607 1366.73,582.037 " fill="none" id="Commande-Utilisateur" style="stroke:#00008B;stroke-width:1.0;"/><text fill="#000000" font-family="Arial" font-size="35" lengthAdjust="spacing" textLength="150" x="1186" y="467.6016">passe par</text><text fill="#000000" font-family="Arial" font-size="35" lengthAdjust="spacing" textLength="53" x="1162.9194" y="494.1491">0..*</text><text fill="#000000" font-family="Arial" font-size="35" lengthAdjust="spacing" textLength="19" x="1340.278" y="610.349">1</text></g><!--link Produit to ArticleCommande--><g id="link_Produit_ArticleCommande"><path codeLine="149" d="M2985.35,464.647 C3065.36,446.927 3155.88,426.877 3232.96,409.797 " fill="none" id="Produit-ArticleCommande" style="stroke:#00008B;stroke-width:1.0;"/><text fill="#000000" font-family="Arial" font-size="35" lengthAdjust="spacing" textLength="186" x="3016" y="411.6016">fait partie de</text><text fill="#000000" font-family="Arial" font-size="35" lengthAdjust="spacing" textLength="19" x="2993.2329" y="495.3763">1</text><text fill="#000000" font-family="Arial" font-size="35" lengthAdjust="spacing" textLength="53" x="3171.853" y="443.8067">0..*</text></g><!--link Categorie to Produit--><g id="link_Categorie_Produit"><path codeLine="150" d="M2338.02,751.147 C2410.99,710.987 2492.89,665.907 2565.87,625.747 " fill="none" id="Categorie-Produit" style="stroke:#00008B;stroke-width:1.0;"/><text fill="#000000" font-family="Arial" font-size="35" lengthAdjust="spacing" textLength="119" x="2392.5" y="638.6016">contient</text><text fill="#000000" font-family="Arial" font-size="35" lengthAdjust="spacing" textLength="19" x="2345.891" y="779.413">1</text><text fill="#000000" font-family="Arial" font-size="35" lengthAdjust="spacing" textLength="53" x="2505.122" y="661.8454">0..*</text></g><!--link Utilisateur to ArticlePanier--><g id="link_Utilisateur_ArticlePanier"><path codeLine="152" d="M1729.27,632.767 C1798.74,611.507 1878.03,587.247 1947.48,565.997 " fill="none" id="Utilisateur-ArticlePanier" style="stroke:#00008B;stroke-width:1.0;"/><text fill="#000000" font-family="Arial" font-size="35" lengthAdjust="spacing" textLength="128" x="1760" y="580.6016">poss&#232;de</text><text fill="#000000" font-family="Arial" font-size="35" lengthAdjust="spacing" textLength="19" x="1736.722" y="663.0607">1</text><text fill="#000000" font-family="Arial" font-size="35" lengthAdjust="spacing" textLength="53" x="1886.3738" y="600.6025">0..*</text></g><!--link ArticlePanier to Produit--><g id="link_ArticlePanier_Produit"><path codeLine="153" d="M2309.6,510.917 C2389.17,510.917 2483.22,510.917 2565.84,510.917 " fill="none" id="ArticlePanier-Produit" style="stroke:#00008B;stroke-width:1.0;"/><text fill="#000000" font-family="Arial" font-size="35" lengthAdjust="spacing" textLength="166" x="2369" y="502.6016">en contient</text><text fill="#000000" font-family="Arial" font-size="35" lengthAdjust="spacing" textLength="53" x="2317.7094" y="543.3709">0..*</text><text fill="#000000" font-family="Arial" font-size="35" lengthAdjust="spacing" textLength="19" x="2538.9639" y="543.3091">1</text></g><!--link Adresse to Pays--><g id="link_Adresse_Pays"><path codeLine="155" d="M1143.38,1097.257 C1214.42,1092.267 1295.83,1086.547 1366.84,1081.567 " fill="none" id="Adresse-Pays" style="stroke:#00008B;stroke-width:1.0;"/><text fill="#000000" font-family="Arial" font-size="35" lengthAdjust="spacing" textLength="120" x="1201" y="1075.6016">bas&#233; en</text><text fill="#000000" font-family="Arial" font-size="35" lengthAdjust="spacing" textLength="53" x="1150.8507" y="1129.1853">0..*</text><text fill="#000000" font-family="Arial" font-size="35" lengthAdjust="spacing" textLength="19" x="1339.7965" y="1114.6183">1</text></g><!--SRC=[nLRDRjim3BxxAOHS2gneiMxO9OS1JOkTXg9OjxEXs8nBL3-U97VjjhxFyXnviL6IxLgEWsPjWUMIX1yfVXz9KpvWvvlr2XKQrYXctRq0LWczv8BnMoZ82Cnn56GkWTLQO45Veh6iCboLaDaRL3KtN1A-uermdxHo5rm2EpN8nJH-XJ-1lV-G3T1JO_IF8VO8NMW7Ew8AmQrblp96dmKlRYgZ6rMUQQ4D-upLjLk81W8Qpe_0EJStlNsXJGac0Wj1HmJhC5s8TixWiabvUE3AWG7jxki4USWo0Il7d6R6is0b6YWSQfLb1-oRGu6MEsWC0yVE189oMPGonAAiGopPd25vX7zAopdroQ2geW4ajMV2bD-2mHL2pbDGQfUNaDUK3LB4Q36oW7KvBoMgELjgGhcAzi80vDxPeIGVBklkx3AaJ26gHXGNbNQwcaUfUQgnDh0bamoUzefBFumfva10VQtLoFnlB1z3QBHsneom1z_Fqz805TFtyfBVsrPiPvtiOX4gGR87DZz4gG0UZpYPjBvBhRVRPG77tQWYsdTU4tSn1H3vbrImxxElmhxJInnVclI0dMaf_JRoBTYinMOjgRgM4HTTu6RTjQHtsxidjS6xtEbGhr8tIn6NnY7bTetx7-FM3fTnM0XuGb2BZYNfii6HpkyDLmuTZAKt2cdx6qZLFtii4EHW0Up3Lj9M9MfFLt_xwTd5SgheOOekOsN2JkPkiwwqGUYujzWqTLfYmNdqGACp8qvMD5LgGSahc33baiYD98PxE6yZ-ZGbsC9WxM-NEHDQLL_XpgM5IfQtR-nB-XbFRcewHxxALAS7xXhviwx8UswMxL9FLkEroT8OSOLWqWSrsgQPf_VWCvxKPopCBo2u7nYRjNVoqT7lZydBnvpDA83U_sQTo-naHcxqTNpyPjPVR-J7mmiXKXIjt6YsMr5lZu_fLxWPACJGKaRQMoLNawwKeDzjv1vULkW5adoptfwwZpSYHHMqE_p1iycOmAPTI454aDexnbE3tjcuC94EzPxeT8lXIJOhJbuKGvH82QNgvpaDxGvC16H31fEfsWdpxBIrcpy-HGgbaWPfGB51fgwn8_UsSKjkDsi6LAg_]--></g></svg>